{"glyphs":{"0":{"ha":835,"x_min":41,"x_max":794,"o":"m 418 75 q 559 113 492 75 q 667 245 635 157 q 685 355 685 294 q 623 547 685 475 q 488 628 567 608 q 418 636 452 636 q 213 547 294 636 q 151 355 151 477 q 168 245 151 294 q 277 113 199 157 q 418 75 342 75 m 418 724 q 618 674 525 724 q 770 500 726 616 q 794 355 794 435 q 770 210 794 275 q 618 37 726 95 q 418 -12 525 -12 q 218 37 311 -12 q 66 211 109 95 q 41 356 41 275 q 66 500 41 436 q 218 674 109 616 q 418 724 311 724 z "},"1":{"ha":394,"x_min":23,"x_max":296,"o":"m 296 711 l 296 0 l 186 0 l 186 614 l 59 549 l 23 627 l 186 711 l 296 711 z "},"2":{"ha":623,"x_min":61,"x_max":544,"o":"m 371 606 q 263 636 337 636 q 102 579 190 636 l 61 650 q 150 701 94 677 q 271 724 206 724 q 448 675 382 724 q 514 529 514 626 q 381 282 514 422 q 324 222 360 259 l 191 87 l 544 87 l 544 0 l 61 0 l 61 87 l 194 222 q 263 293 231 261 q 394 472 370 401 q 404 538 404 502 q 371 606 404 574 z "},"3":{"ha":570,"x_min":24,"x_max":534,"o":"m 486 507 q 363 313 486 381 q 492 221 450 280 q 534 55 534 156 q 452 -151 534 -66 q 235 -237 366 -237 q 24 -175 104 -237 l 68 -104 q 225 -150 136 -150 q 369 -91 313 -150 q 424 60 424 -31 q 362 205 424 152 q 214 258 300 258 l 159 258 l 159 345 l 195 345 q 313 380 258 345 q 358 431 341 397 q 376 502 376 464 q 328 608 376 574 q 225 637 283 637 q 98 606 168 637 l 69 682 q 151 712 104 700 q 246 724 199 724 q 339 710 294 724 q 456 624 420 686 q 486 507 486 574 z "},"4":{"ha":675,"x_min":42,"x_max":657,"o":"m 401 176 l 401 557 l 157 176 l 401 176 m 42 160 l 401 724 l 510 724 l 510 176 l 657 176 l 657 89 l 510 89 l 510 -174 l 401 -174 l 401 89 l 42 89 l 42 160 z "},"5":{"ha":566,"x_min":33,"x_max":507,"o":"m 81 711 l 486 711 l 486 625 l 191 625 l 179 380 q 432 282 347 368 q 486 195 465 250 q 507 69 507 140 q 423 -154 507 -70 q 187 -237 338 -237 q 109 -228 155 -237 q 33 -202 63 -219 l 71 -119 q 187 -146 119 -146 q 345 -85 291 -146 q 398 69 398 -24 q 260 271 398 216 q 100 298 191 298 l 58 298 l 81 711 z "},"6":{"ha":687,"x_min":47,"x_max":639,"o":"m 363 75 q 393 75 363 75 q 475 125 423 75 q 530 262 527 174 l 530 274 q 479 412 530 361 q 345 462 429 462 q 160 388 238 462 q 157 324 157 366 q 171 231 157 281 q 207 153 185 181 q 256 106 228 124 q 363 75 303 75 m 356 -12 q 193 32 267 -12 q 68 199 103 85 q 47 330 47 263 q 54 444 47 396 q 78 544 61 492 q 121 640 95 595 q 189 727 147 685 q 283 800 230 768 q 570 885 399 869 l 580 798 q 309 704 414 783 q 172 484 203 625 q 254 532 200 514 q 363 549 307 549 q 561 475 482 549 q 639 279 639 401 q 564 73 639 157 q 356 -12 488 -12 z "},"7":{"ha":534,"x_min":24,"x_max":523,"o":"m 257 431 l 369 625 l 24 625 l 24 711 l 523 711 l 412 518 q 266 179 322 363 q 193 -174 210 -5 l 84 -174 q 151 156 98 -26 q 257 431 204 338 z "},"8":{"ha":646,"x_min":47,"x_max":600,"o":"m 446 634 q 456 688 456 659 q 442 740 456 717 q 405 774 427 763 q 320 798 362 798 q 245 781 278 798 q 183 686 183 749 q 227 583 183 625 q 328 513 262 549 q 446 634 423 581 m 296 410 q 193 325 229 372 q 157 218 157 278 q 205 117 157 158 q 322 75 254 75 q 440 112 389 75 q 491 212 491 149 q 414 342 491 290 q 346 384 376 369 q 296 410 317 399 m 214 456 q 84 612 110 524 q 74 699 74 648 q 110 795 74 750 q 320 885 182 885 q 529 795 457 885 q 566 702 566 750 q 553 620 566 654 q 517 559 540 587 q 409 471 478 514 q 562 346 519 410 q 600 206 600 287 q 536 56 600 118 q 320 -12 465 -12 q 62 124 116 -12 q 47 199 47 162 q 53 261 47 235 q 66 307 58 287 q 87 346 74 327 q 114 378 101 365 q 145 407 126 392 q 214 456 179 433 z "},"9":{"ha":687,"x_min":47,"x_max":639,"o":"m 323 636 q 293 636 323 636 q 211 587 263 636 q 157 449 159 537 l 157 437 q 207 300 157 350 q 342 250 258 250 q 526 323 448 250 q 530 388 530 345 q 515 480 530 430 q 480 559 501 530 q 430 606 458 587 q 323 636 383 636 m 330 724 q 494 680 420 724 q 618 513 583 627 q 639 382 639 448 q 632 267 639 315 q 608 168 625 219 q 565 71 591 116 q 498 -15 539 26 q 404 -88 456 -57 q 117 -174 288 -158 l 106 -86 q 378 7 272 -71 q 515 228 484 86 q 433 180 486 197 q 323 162 379 162 q 126 236 204 162 q 47 432 47 311 q 123 639 47 554 q 330 724 198 724 z "},"\u0000":{"ha":0,"x_min":0,"x_max":0,"o":""},"\f":{"ha":463,"x_min":0,"x_max":0,"o":""}," ":{"ha":395,"x_min":0,"x_max":0,"o":""},"!":{"ha":308,"x_min":73,"x_max":235,"o":"m 73 944 l 235 944 l 192 312 l 130 312 l 73 944 m 74 70 q 97 128 74 104 q 154 152 121 152 q 211 128 187 152 q 234 70 234 104 q 211 12 234 36 q 154 -12 187 -12 q 97 12 121 -12 q 74 70 74 36 z "},"\"":{"ha":390,"x_min":43,"x_max":348,"o":"m 43 665 m 146 968 l 114 665 l 43 665 l 43 968 l 146 968 m 348 968 l 315 665 l 245 665 l 245 968 l 348 968 z "},"#":{"ha":801,"x_min":57,"x_max":805,"o":"m 355 1000 l 442 1000 l 376 686 l 576 686 l 643 1000 l 730 1000 l 663 685 l 805 685 l 805 611 l 648 611 l 595 366 l 737 366 l 737 292 l 580 292 l 518 0 l 431 0 l 493 292 l 292 292 l 231 0 l 144 0 l 205 293 l 57 293 l 57 367 l 221 367 l 273 612 l 125 612 l 125 686 l 289 686 l 355 1000 m 308 366 l 509 366 l 561 612 l 360 612 l 308 366 z "},"$":{"ha":655,"x_min":65,"x_max":590,"o":"m 291 463 l 291 705 q 221 665 248 694 q 195 591 195 635 q 220 518 195 548 q 291 463 245 488 m 291 796 l 291 907 l 370 907 l 370 795 q 531 745 471 786 l 507 659 q 370 708 447 699 l 370 427 q 384 420 371 426 q 409 410 397 415 q 443 394 420 405 q 476 376 465 384 q 506 357 488 369 q 534 334 524 345 q 557 308 545 323 q 575 277 569 293 q 590 201 590 239 q 530 59 590 119 q 370 -11 470 -1 l 370 -122 l 291 -122 l 291 -11 q 102 42 182 -4 q 65 62 85 52 l 104 143 q 217 87 178 96 q 291 77 257 79 l 291 357 q 177 418 201 397 q 135 456 152 438 q 109 492 118 473 q 85 588 85 536 q 142 728 85 671 q 291 796 198 786 m 370 321 l 370 79 q 452 119 424 89 q 481 191 481 150 q 370 321 481 264 z "},"%":{"ha":1062,"x_min":28,"x_max":1008,"o":"m 758 943 l 844 943 l 311 0 l 224 0 l 758 943 m 106 897 q 124 909 106 897 q 178 932 141 921 q 254 944 216 944 q 330 932 292 944 q 402 897 367 921 q 458 827 437 872 q 480 722 480 782 q 458 617 480 663 q 401 548 437 572 q 254 501 334 501 q 106 548 174 501 q 50 617 71 572 q 28 722 28 663 q 50 827 28 782 q 106 897 71 872 m 254 574 q 328 598 299 574 q 383 722 383 642 q 297 863 383 831 q 254 871 276 871 q 180 846 209 871 q 125 722 125 802 q 212 582 125 613 q 254 574 233 574 m 634 383 q 651 395 634 383 q 706 419 669 408 q 782 431 743 431 q 857 419 820 431 q 929 383 895 408 q 986 314 964 359 q 1008 209 1008 269 q 986 104 1008 149 q 929 35 964 59 q 782 -12 861 -12 q 633 35 702 -12 q 577 104 599 59 q 555 209 555 149 q 577 314 555 269 q 634 383 599 359 m 782 60 q 856 84 827 60 q 911 209 911 129 q 825 350 911 317 q 782 357 804 357 q 707 334 736 357 q 652 209 652 289 q 739 68 652 100 q 782 60 760 60 z "},"&":{"ha":994,"x_min":52,"x_max":895,"o":"m 307 484 q 200 390 240 452 q 161 251 161 327 q 220 125 161 175 q 353 75 279 75 q 495 102 428 75 q 594 173 562 129 l 307 484 m 252 562 q 201 734 201 638 q 265 885 201 830 q 418 940 330 940 q 640 879 551 940 l 613 784 q 538 826 595 800 q 438 852 481 852 q 369 831 395 852 q 326 717 326 794 q 384 562 326 640 q 659 254 482 431 q 735 426 699 313 q 784 624 772 538 l 856 578 q 802 376 847 494 q 713 194 758 258 l 895 0 l 751 0 l 651 109 q 613 75 631 92 q 572 43 596 58 q 520 15 547 27 q 381 -12 460 -12 q 249 4 303 -12 q 149 51 194 20 q 78 134 104 81 q 52 254 52 186 q 82 384 52 321 q 154 486 112 446 q 252 562 197 527 z "},"'":{"ha":179,"x_min":43,"x_max":146,"o":"m 146 968 l 114 665 l 43 665 l 43 968 l 146 968 z "},"(":{"ha":430,"x_min":75,"x_max":394,"o":"m 184 334 q 308 -179 184 73 q 394 -334 345 -254 l 319 -334 q 122 37 174 -126 q 75 334 75 187 q 198 806 75 571 q 319 1002 248 899 l 394 1002 q 199 518 237 745 q 184 334 184 429 z "},")":{"ha":430,"x_min":36,"x_max":355,"o":"m 246 334 q 122 846 246 595 q 36 1002 85 921 l 111 1002 q 308 629 254 796 q 355 334 355 477 q 232 -138 355 94 q 111 -334 182 -231 l 36 -334 q 231 149 193 -78 q 246 334 246 239 z "},"*":{"ha":576,"x_min":63,"x_max":507,"o":"m 308 646 l 409 477 l 323 437 l 270 631 l 141 482 l 77 551 l 244 661 l 63 738 l 109 821 l 265 696 l 282 892 l 375 873 l 304 686 l 496 731 l 507 637 l 308 646 z "},"+":{"ha":766,"x_min":41,"x_max":725,"o":"m 420 378 l 725 378 l 725 304 l 420 304 l 420 0 l 346 0 l 346 304 l 41 304 l 41 378 l 346 378 l 346 684 l 420 684 l 420 378 z "},",":{"ha":305,"x_min":51,"x_max":238,"o":"m 139 -18 q 106 9 139 -6 q 83 33 94 16 q 73 77 73 50 q 94 128 73 104 q 148 152 115 152 q 199 140 180 152 q 225 109 218 128 q 238 35 238 77 q 106 -199 238 -73 l 51 -151 q 139 -18 139 -66 z "},"-":{"ha":519,"x_min":41,"x_max":468,"o":"m 468 304 l 41 304 l 41 378 l 468 378 l 468 304 z "},".":{"ha":305,"x_min":73,"x_max":233,"o":"m 73 70 q 96 128 73 104 q 153 152 119 152 q 209 128 186 152 q 233 70 233 104 q 209 12 233 36 q 153 -12 186 -12 q 96 12 119 -12 q 73 70 73 36 z "},"/":{"ha":437,"x_min":16,"x_max":421,"o":"m 334 1000 l 421 1000 l 103 0 l 16 0 l 334 1000 z "},":":{"ha":305,"x_min":73,"x_max":233,"o":"m 73 0 m 73 511 q 96 569 73 545 q 153 593 119 593 q 209 569 186 593 q 233 511 233 545 q 209 453 233 477 q 153 429 186 429 q 96 453 119 429 q 73 511 73 477 m 73 70 q 96 128 73 104 q 153 152 119 152 q 209 128 186 152 q 233 70 233 104 q 209 12 233 36 q 153 -12 186 -12 q 96 12 119 -12 q 73 70 73 36 z "},";":{"ha":305,"x_min":51,"x_max":238,"o":"m 51 0 m 139 -18 q 106 9 139 -6 q 83 33 94 16 q 73 77 73 50 q 94 128 73 104 q 148 152 115 152 q 199 140 180 152 q 225 109 218 128 q 238 35 238 77 q 106 -199 238 -73 l 51 -151 q 139 -18 139 -66 m 73 511 q 96 569 73 545 q 153 593 119 593 q 209 569 186 593 q 233 511 233 545 q 209 453 233 477 q 153 429 186 429 q 96 453 119 429 q 73 511 73 477 z "},"<":{"ha":656,"x_min":0,"x_max":596,"o":"m 0 356 l 543 783 l 596 726 l 127 356 l 596 -14 l 543 -71 l 0 356 z "},"=":{"ha":713,"x_min":41,"x_max":672,"o":"m 672 427 l 41 427 l 41 500 l 672 500 l 672 427 m 672 199 l 41 199 l 41 273 l 672 273 l 672 199 z "},">":{"ha":656,"x_min":60,"x_max":656,"o":"m 656 356 l 113 -71 l 60 -14 l 529 356 l 60 726 l 113 783 l 656 356 z "},"?":{"ha":586,"x_min":73,"x_max":518,"o":"m 205 70 q 228 128 205 104 q 285 152 252 152 q 341 128 318 152 q 365 70 365 104 q 341 12 365 36 q 285 -12 318 -12 q 228 12 252 -12 q 205 70 205 36 m 250 263 q 214 380 214 330 q 234 475 214 431 q 282 558 254 519 q 340 635 311 597 q 409 800 409 728 q 369 874 409 842 q 254 905 329 905 q 107 863 178 905 l 73 936 q 191 986 140 979 q 285 993 241 993 q 448 939 377 993 q 518 800 518 885 q 449 614 518 714 q 392 534 420 573 q 323 389 323 441 q 340 277 323 336 l 250 263 z "},"@":{"ha":1352,"x_min":61,"x_max":1309,"o":"m 1207 728 q 1232 694 1207 728 q 1283 579 1258 660 q 1309 423 1309 499 q 1293 284 1309 347 q 1246 168 1277 221 q 1172 75 1215 115 q 956 -10 1082 -10 q 791 65 817 -10 q 784 98 787 79 q 575 -12 706 -12 q 433 39 487 -12 q 375 207 375 93 q 552 575 375 442 q 762 649 651 649 q 879 633 829 649 q 978 583 928 617 l 916 266 q 900 140 900 183 q 918 81 900 98 q 985 64 935 64 q 1090 115 1035 64 q 1178 244 1145 165 q 1212 412 1212 323 q 1177 589 1212 502 q 1080 741 1143 675 q 925 844 1018 806 q 734 882 831 882 q 555 854 637 882 q 401 772 472 826 q 275 647 330 719 q 189 481 220 575 q 158 278 158 387 q 199 68 158 170 q 311 -105 240 -33 q 483 -219 382 -177 q 699 -260 584 -260 q 1071 -132 905 -260 q 1129 -85 1093 -115 l 1190 -132 q 981 -277 1108 -220 q 721 -334 854 -334 q 493 -309 587 -334 q 330 -239 398 -283 q 209 -135 261 -194 q 125 -4 156 -75 q 61 296 61 139 q 189 685 61 515 q 510 922 319 857 q 715 955 608 955 q 919 926 823 955 q 1085 847 1015 897 q 1207 728 1156 796 m 860 536 q 774 562 825 562 q 682 548 722 562 q 613 513 642 535 q 562 462 585 492 q 525 401 538 432 q 501 335 511 370 q 484 209 484 274 q 516 109 484 143 q 590 75 548 75 q 660 84 631 75 q 712 113 688 94 q 794 197 753 146 l 860 536 z "},"A":{"ha":901,"x_min":45,"x_max":855,"o":"m 633 274 l 261 274 l 159 0 l 45 0 l 399 943 l 501 943 l 855 0 l 734 0 l 633 274 m 597 369 l 447 776 l 296 369 l 597 369 z "},"B":{"ha":757,"x_min":122,"x_max":724,"o":"m 245 849 l 245 539 l 290 539 q 463 582 403 539 q 523 705 523 625 q 425 844 523 805 q 331 861 379 861 q 245 849 283 861 m 599 264 q 286 444 599 444 l 245 444 l 245 95 q 338 83 281 83 q 532 130 466 83 q 599 264 599 177 m 673 117 q 334 -12 575 -12 q 122 9 214 -12 l 122 930 q 355 956 235 956 q 565 897 476 956 q 653 742 653 838 q 606 588 653 646 q 486 510 559 530 q 709 365 665 486 q 724 280 724 327 q 673 117 724 184 z "},"C":{"ha":851,"x_min":33,"x_max":791,"o":"m 502 83 q 731 166 621 83 l 791 85 q 672 16 719 33 q 467 -12 597 -12 q 237 49 337 -12 q 85 219 138 110 q 33 472 33 329 q 85 724 33 615 q 237 895 138 833 q 470 956 337 956 q 648 937 597 956 q 725 902 699 918 q 791 858 751 887 l 731 777 q 502 861 621 861 l 494 861 q 351 828 418 861 q 180 616 229 768 q 157 471 157 547 q 179 327 157 396 q 243 202 202 257 q 494 83 333 83 l 502 83 z "},"D":{"ha":932,"x_min":122,"x_max":902,"o":"m 747 111 q 372 -12 599 -12 q 122 9 249 -12 l 122 930 q 357 956 265 956 q 791 776 629 956 q 872 639 842 718 q 902 457 902 559 q 860 262 902 355 q 747 111 817 170 m 245 849 l 244 95 q 378 83 307 83 q 648 180 530 83 q 740 301 705 226 q 774 458 774 376 q 591 797 774 680 q 370 861 489 861 q 245 849 298 861 z "},"E":{"ha":730,"x_min":122,"x_max":661,"o":"m 245 437 l 245 95 l 661 95 l 661 0 l 122 0 l 122 943 l 661 943 l 661 849 l 245 849 l 245 532 l 528 532 l 528 437 l 245 437 z "},"F":{"ha":677,"x_min":122,"x_max":661,"o":"m 245 437 l 245 0 l 122 0 l 122 943 l 661 943 l 661 849 l 245 849 l 245 532 l 528 532 l 528 437 l 245 437 z "},"G":{"ha":973,"x_min":33,"x_max":865,"o":"m 33 472 q 92 724 33 615 q 262 895 151 833 q 522 956 373 956 q 709 935 650 956 q 794 900 767 914 q 865 857 822 885 l 818 767 q 525 861 673 861 q 373 828 442 861 q 189 618 241 766 q 163 480 163 548 q 288 163 163 279 q 495 83 371 83 l 503 83 q 726 134 613 83 l 726 357 l 525 357 l 525 451 l 849 452 l 848 85 q 496 -12 704 -12 q 160 121 288 -12 q 33 472 33 255 z "},"H":{"ha":925,"x_min":122,"x_max":803,"o":"m 803 943 l 803 0 l 680 0 l 680 450 l 245 450 l 245 0 l 122 0 l 122 943 l 245 943 l 245 545 l 680 545 l 680 943 l 803 943 z "},"I":{"ha":367,"x_min":122,"x_max":245,"o":"m 245 943 l 245 0 l 122 0 l 122 943 l 245 943 z "},"J":{"ha":367,"x_min":-28,"x_max":245,"o":"m 245 943 l 245 95 q 243 22 243 50 q 238 -46 243 -6 q 225 -113 233 -85 q 200 -174 216 -140 q 161 -233 184 -208 q 25 -336 107 -294 l -28 -269 q 87 -136 52 -208 q 122 47 122 -64 l 122 943 l 245 943 z "},"K":{"ha":756,"x_min":122,"x_max":748,"o":"m 245 0 l 122 0 l 122 943 l 245 943 l 245 470 l 591 943 l 718 943 l 376 475 l 748 0 l 605 0 l 245 460 l 245 0 z "},"L":{"ha":685,"x_min":122,"x_max":661,"o":"m 122 0 l 122 943 l 245 943 l 245 95 l 661 95 l 661 0 l 122 0 z "},"M":{"ha":1203,"x_min":74,"x_max":1128,"o":"m 606 169 l 897 944 l 1011 944 l 1128 0 l 1008 0 l 924 705 l 665 0 l 553 0 l 271 737 l 182 0 l 74 0 l 191 944 l 312 944 l 606 169 z "},"N":{"ha":939,"x_min":122,"x_max":817,"o":"m 817 943 l 817 0 l 694 0 l 245 707 l 245 0 l 122 0 l 122 943 l 245 943 l 694 236 l 694 943 l 817 943 z "},"O":{"ha":979,"x_min":31,"x_max":949,"o":"m 150 819 q 295 919 207 883 q 481 956 383 956 q 875 759 749 956 q 949 477 949 640 q 872 191 949 312 q 652 14 791 61 q 480 -12 578 -12 q 292 25 381 -12 q 146 129 203 63 q 31 477 31 265 q 150 819 31 686 m 673 809 q 493 862 597 862 q 312 811 389 862 q 161 477 161 710 q 311 136 161 240 q 478 83 387 83 q 736 201 647 83 q 821 477 821 315 q 673 809 821 705 z "},"P":{"ha":734,"x_min":122,"x_max":702,"o":"m 122 930 q 341 956 254 956 q 490 940 428 956 q 591 897 552 924 q 655 834 630 871 q 702 675 702 766 q 607 471 702 551 q 360 391 512 391 l 245 391 l 245 0 l 122 0 l 122 930 m 245 849 l 245 486 l 290 486 q 506 530 440 486 q 572 668 572 574 q 517 812 572 762 q 353 861 461 861 q 245 849 294 861 z "},"Q":{"ha":983,"x_min":31,"x_max":949,"o":"m 62 667 q 295 920 125 849 q 481 956 383 956 q 875 759 749 956 q 949 477 949 640 q 825 129 949 267 q 678 23 764 60 q 735 -11 697 13 q 798 -47 774 -34 q 930 -96 863 -85 l 895 -184 q 728 -116 817 -172 q 580 -35 627 -54 q 489 -12 533 -16 q 105 187 226 -10 q 31 477 31 306 q 62 667 31 580 m 673 809 q 493 862 597 862 q 312 811 389 862 q 161 477 161 710 q 311 136 161 240 q 478 83 387 83 q 736 201 647 83 q 821 477 821 315 q 673 809 821 705 z "},"R":{"ha":709,"x_min":122,"x_max":732,"o":"m 732 0 l 595 0 l 245 426 l 245 0 l 122 0 l 122 930 q 339 956 249 956 q 585 883 496 956 q 674 699 674 811 q 594 513 674 587 q 379 428 514 439 l 732 0 m 333 861 q 245 849 279 861 l 245 521 l 262 521 q 544 694 544 521 q 481 815 544 768 q 333 861 417 861 z "},"S":{"ha":683,"x_min":65,"x_max":618,"o":"m 106 172 q 141 145 125 158 q 178 121 157 132 q 220 102 198 110 q 326 83 267 83 q 463 131 425 83 q 494 213 494 172 q 486 276 494 253 q 424 351 471 316 q 377 380 404 365 l 266 435 q 171 501 203 469 q 122 560 138 533 q 86 717 86 621 q 156 884 86 813 q 338 956 226 956 q 466 937 409 956 q 555 893 522 919 l 530 800 q 347 862 449 862 q 246 819 282 862 q 210 709 210 777 q 220 654 210 679 q 290 574 237 609 q 349 543 311 559 l 455 488 q 506 457 484 473 q 549 420 528 442 q 618 244 618 352 q 544 62 618 136 q 351 -12 470 -12 q 137 34 221 -12 q 65 77 92 58 l 106 172 z "},"T":{"ha":802,"x_min":39,"x_max":764,"o":"m 39 943 l 764 943 l 764 849 l 463 849 l 463 0 l 340 0 l 340 849 l 39 849 l 39 943 z "},"U":{"ha":888,"x_min":122,"x_max":766,"o":"m 462 -12 q 122 297 122 -12 l 122 943 l 245 943 l 245 330 q 303 143 245 203 q 457 83 361 83 q 650 348 650 83 l 650 943 l 766 943 l 766 318 q 686 78 766 168 q 462 -12 606 -12 z "},"V":{"ha":901,"x_min":45,"x_max":855,"o":"m 454 168 l 741 943 l 855 943 l 501 0 l 399 0 l 45 943 l 166 943 l 454 168 z "},"W":{"ha":1375,"x_min":45,"x_max":1329,"o":"m 1215 943 l 1329 943 l 1017 0 l 915 0 l 687 688 l 459 0 l 357 0 l 45 943 l 166 943 l 412 168 l 658 943 l 724 943 l 969 168 l 1215 943 z "},"X":{"ha":873,"x_min":57,"x_max":817,"o":"m 73 944 l 216 944 l 449 579 l 680 943 l 807 943 l 513 479 l 817 1 l 673 1 l 429 384 l 184 -3 l 57 -3 l 366 484 l 73 944 z "},"Y":{"ha":842,"x_min":40,"x_max":802,"o":"m 688 943 l 802 943 l 482 419 l 482 0 l 359 0 l 359 420 l 40 943 l 161 943 l 425 511 l 688 943 z "},"Z":{"ha":854,"x_min":34,"x_max":757,"o":"m 59 943 l 757 943 l 217 94 l 757 94 l 757 -1 l 34 0 l 574 849 l 59 849 l 59 943 z "},"[":{"ha":394,"x_min":68,"x_max":354,"o":"m 68 -332 l 68 1000 l 354 1000 l 354 913 l 177 913 l 177 -245 l 354 -245 l 354 -332 l 68 -332 z "},"\\":{"ha":437,"x_min":16,"x_max":421,"o":"m 103 1000 l 421 0 l 334 0 l 16 1000 l 103 1000 z "},"]":{"ha":394,"x_min":68,"x_max":354,"o":"m 354 -332 l 68 -332 l 68 -245 l 245 -245 l 245 913 l 68 913 l 68 1000 l 354 1000 l 354 -332 z "},"^":{"ha":736,"x_min":44,"x_max":688,"o":"m 407 956 l 688 562 l 621 539 l 366 888 l 112 539 l 44 562 l 326 956 l 407 956 z "},"_":{"ha":711,"x_min":44,"x_max":667,"o":"m 667 -201 l 44 -201 l 44 -127 l 667 -127 l 667 -201 z "},"`":{"ha":333,"x_min":7,"x_max":244,"o":"m 7 1000 l 134 1000 l 244 746 l 169 746 l 7 1000 z "},"a":{"ha":606,"x_min":52,"x_max":533,"o":"m 410 286 q 161 162 161 286 q 181 100 161 129 q 229 72 202 72 l 255 72 q 414 229 404 72 l 414 286 l 410 286 m 98 606 q 298 648 220 648 q 435 610 376 648 q 513 495 493 571 q 524 321 524 452 l 524 109 q 533 0 524 49 l 423 0 q 414 63 414 28 l 414 68 q 377 33 397 47 q 241 -14 313 -14 q 75 72 121 -14 q 52 159 52 115 q 191 331 52 278 q 402 363 274 363 l 414 363 l 414 431 q 386 533 414 506 q 275 564 353 564 q 104 521 198 564 l 98 606 z "},"b":{"ha":718,"x_min":111,"x_max":677,"o":"m 403 562 q 220 439 292 562 l 220 100 q 326 75 260 75 q 554 233 503 75 q 568 337 568 279 q 553 441 568 395 q 462 550 529 521 q 403 562 434 562 m 220 562 q 310 630 264 611 q 410 648 355 648 q 595 574 519 648 q 655 473 633 536 q 677 336 677 410 q 533 43 677 143 q 357 -12 451 -12 q 111 54 219 -12 l 111 1000 l 220 1000 l 220 562 z "},"c":{"ha":602,"x_min":41,"x_max":567,"o":"m 372 75 q 525 129 452 75 l 567 56 q 471 2 513 16 q 345 -12 429 -12 q 123 78 205 -12 q 41 318 41 168 q 123 558 41 468 q 345 648 205 648 q 471 634 429 648 q 567 581 513 620 l 525 507 q 372 561 452 561 l 368 561 q 210 490 269 561 q 151 318 151 418 q 210 146 151 218 q 368 75 269 75 l 372 75 z "},"d":{"ha":721,"x_min":41,"x_max":610,"o":"m 315 -12 q 173 31 237 -12 q 75 144 109 75 q 41 293 41 214 q 133 550 41 451 q 361 648 225 648 q 498 627 418 648 l 498 1000 l 610 1000 l 610 0 l 498 0 l 498 75 q 315 -12 421 -12 m 498 532 q 387 562 441 562 q 222 490 292 562 q 151 307 151 413 q 201 138 151 201 q 326 75 252 75 q 421 110 376 75 q 498 197 467 144 l 498 532 z "},"e":{"ha":637,"x_min":41,"x_max":591,"o":"m 339 562 q 198 505 245 562 q 155 393 165 465 l 484 393 q 440 515 478 467 q 339 562 401 562 m 568 37 q 370 -12 495 -12 q 127 78 212 -12 q 41 318 41 168 q 168 601 41 513 q 326 648 239 648 q 529 557 460 648 q 591 353 587 479 l 575 312 l 151 312 q 211 137 152 199 q 368 75 270 75 q 539 115 443 75 l 568 37 z "},"f":{"ha":458,"x_min":38,"x_max":574,"o":"m 151 692 q 389 993 151 993 q 511 970 463 993 q 547 948 527 962 q 574 932 568 935 l 544 846 q 474 888 516 870 q 386 906 433 906 q 299 857 339 906 q 260 751 260 808 l 260 636 l 415 636 l 415 549 l 260 549 l 260 0 l 151 0 l 151 549 l 38 549 l 38 636 l 151 636 l 151 692 z "},"g":{"ha":665,"x_min":45,"x_max":636,"o":"m 334 561 q 197 461 227 561 q 189 408 189 435 q 223 316 189 352 q 334 281 258 281 q 471 373 441 281 q 479 420 479 397 q 447 513 479 470 q 334 561 410 561 m 546 549 q 588 421 588 490 q 505 244 588 310 q 334 193 442 193 q 229 205 275 193 q 189 136 189 175 q 363 83 189 83 q 619 -14 564 83 q 636 -82 636 -44 q 589 -223 636 -165 q 288 -334 500 -334 q 112 -290 180 -334 q 45 -163 45 -247 q 114 -22 45 -79 q 164 12 134 -6 q 80 115 80 41 q 99 178 80 143 q 157 239 118 212 q 79 406 81 294 l 79 410 q 134 568 79 497 q 214 626 163 604 q 324 648 266 648 q 423 636 382 648 l 636 636 l 636 549 l 546 549 m 269 -4 q 180 -71 203 -41 q 154 -146 154 -106 q 178 -208 154 -185 q 308 -246 218 -246 q 494 -185 431 -246 q 527 -106 527 -153 q 489 -36 527 -58 q 410 -10 448 -14 q 321 -5 359 -5 q 269 -4 283 -5 z "},"h":{"ha":760,"x_min":111,"x_max":649,"o":"m 540 344 q 384 562 540 562 q 311 540 344 562 q 231 433 260 507 q 220 392 220 407 l 220 0 l 111 0 l 111 1000 l 220 1000 l 220 519 q 419 648 281 648 q 519 624 475 648 q 589 570 564 599 q 649 382 649 503 l 649 0 l 540 0 l 540 344 z "},"i":{"ha":371,"x_min":38,"x_max":285,"o":"m 38 0 m 260 636 l 260 0 l 151 0 l 151 549 l 38 549 l 38 636 l 260 636 m 125 888 q 148 946 125 922 q 205 970 172 970 q 261 946 238 970 q 285 888 285 922 q 261 830 285 854 q 205 806 238 806 q 148 830 172 806 q 125 888 125 854 z "},"j":{"ha":371,"x_min":7,"x_max":285,"o":"m 7 0 m 260 636 l 260 75 q 233 -138 260 -64 q 68 -334 191 -252 l 7 -285 q 109 -156 81 -213 q 151 75 151 -70 l 151 549 l 38 549 l 38 636 l 260 636 m 125 888 q 148 946 125 922 q 205 970 172 970 q 261 946 238 970 q 285 888 285 922 q 261 830 285 854 q 205 806 238 806 q 148 830 172 806 q 125 888 125 854 z "},"k":{"ha":634,"x_min":111,"x_max":619,"o":"m 220 0 l 111 0 l 111 1000 l 220 1000 l 220 423 l 437 636 l 572 636 l 311 381 l 619 0 l 484 0 l 220 325 l 220 0 z "},"l":{"ha":402,"x_min":111,"x_max":366,"o":"m 252 -12 q 111 167 111 -12 l 111 1000 l 220 1000 l 220 174 q 241 99 220 121 q 279 76 262 76 q 357 81 297 76 l 366 2 q 252 -12 298 -12 z "},"m":{"ha":1116,"x_min":111,"x_max":1004,"o":"m 507 318 q 361 562 507 562 q 290 532 322 562 q 241 461 258 503 q 220 372 220 418 l 220 0 l 111 0 l 111 636 l 220 636 l 220 535 q 282 616 241 585 q 385 648 323 648 q 588 496 538 648 q 777 648 642 648 q 946 565 888 648 q 1004 318 1004 481 l 1004 1 l 899 0 l 899 318 q 753 562 899 562 q 682 532 714 562 q 633 461 650 503 q 612 372 612 418 l 612 0 l 507 0 l 507 318 z "},"n":{"ha":760,"x_min":111,"x_max":649,"o":"m 540 344 q 384 562 540 562 q 311 540 344 562 q 231 433 260 507 q 220 392 220 407 l 220 0 l 111 0 l 111 636 l 220 636 l 220 519 q 419 648 281 648 q 519 624 475 648 q 589 570 564 599 q 649 382 649 503 l 649 0 l 540 0 l 540 344 z "},"o":{"ha":686,"x_min":41,"x_max":645,"o":"m 151 318 q 167 203 151 252 q 212 127 184 154 q 273 88 240 100 q 343 75 306 75 q 474 127 419 75 q 534 318 534 185 q 474 509 534 450 q 343 561 418 561 q 212 509 267 561 q 151 318 151 450 m 41 318 q 174 604 41 524 q 343 648 247 648 q 513 604 439 648 q 582 543 553 580 q 645 318 645 460 q 513 33 645 112 q 343 -12 440 -12 q 174 33 245 -12 q 104 94 134 56 q 41 318 41 174 z "},"p":{"ha":721,"x_min":111,"x_max":680,"o":"m 223 104 q 334 75 277 75 q 498 147 430 75 q 570 329 570 222 q 520 498 570 435 q 395 561 469 561 q 300 527 345 561 q 223 439 254 492 l 223 104 m 406 648 q 548 605 484 648 q 646 492 612 562 q 680 343 680 422 q 588 86 680 185 q 359 -12 496 -12 q 223 9 302 -12 l 223 -334 l 111 -334 l 111 636 l 223 636 l 223 562 q 406 648 300 648 z "},"q":{"ha":719,"x_min":41,"x_max":608,"o":"m 498 75 q 409 6 454 25 q 309 -12 363 -12 q 123 62 199 -12 q 63 163 85 100 q 41 300 41 227 q 186 593 41 494 q 362 648 267 648 q 608 582 500 648 l 608 -334 l 498 -334 l 498 75 m 315 75 q 498 197 426 75 l 498 536 q 393 561 459 561 q 165 404 214 561 q 151 300 151 357 q 165 196 151 242 q 204 123 180 149 q 315 75 252 75 z "},"r":{"ha":563,"x_min":111,"x_max":536,"o":"m 111 0 l 111 636 l 220 636 l 220 519 q 290 610 245 572 q 392 648 335 648 q 487 628 450 648 q 536 586 524 608 l 490 517 q 471 537 480 529 q 397 562 446 562 q 309 530 349 562 q 247 453 270 498 q 220 362 224 408 l 220 0 l 111 0 z "},"s":{"ha":530,"x_min":45,"x_max":486,"o":"m 259 75 q 376 176 376 75 q 264 274 376 237 l 198 297 q 93 369 127 322 q 58 478 58 415 q 117 595 58 542 q 269 648 176 648 q 377 632 330 648 q 450 596 425 616 l 412 515 q 352 547 391 532 q 269 562 313 562 q 196 535 224 562 q 168 476 168 509 q 189 422 168 444 q 277 377 211 400 l 343 354 q 451 288 416 329 q 486 169 486 247 q 426 39 486 91 q 263 -12 366 -12 q 158 -1 208 -12 q 45 46 107 10 l 84 130 q 173 87 136 99 q 259 75 210 75 z "},"t":{"ha":454,"x_min":5,"x_max":425,"o":"m 279 -12 q 118 167 118 -12 l 118 549 l 5 549 l 5 636 l 118 636 l 118 765 l 227 806 l 227 636 l 382 636 l 382 549 l 227 549 l 227 174 q 254 99 227 121 q 313 76 280 76 q 411 87 376 76 l 425 10 q 279 -12 362 -12 z "},"u":{"ha":760,"x_min":111,"x_max":649,"o":"m 540 117 q 341 -12 479 -12 q 241 13 286 -12 q 171 66 197 37 q 129 143 146 94 q 111 254 111 192 l 111 636 l 220 636 l 220 292 q 376 75 220 75 q 450 96 416 75 q 530 203 500 129 q 540 244 540 229 l 540 636 l 649 636 l 649 0 l 540 0 l 540 117 z "},"v":{"ha":667,"x_min":14,"x_max":653,"o":"m 543 636 l 653 636 l 370 0 l 298 0 l 14 636 l 132 636 l 338 180 l 543 636 z "},"w":{"ha":1025,"x_min":14,"x_max":1011,"o":"m 901 636 l 1011 636 l 762 0 l 692 0 l 513 455 l 335 0 l 264 0 l 14 636 l 132 636 l 303 180 l 474 636 l 559 636 l 730 180 l 901 636 z "},"x":{"ha":641,"x_min":31,"x_max":609,"o":"m 41 636 l 168 636 l 327 401 l 492 634 l 609 634 l 381 321 l 599 0 l 473 0 l 314 234 l 148 0 l 31 0 l 260 314 l 41 636 z "},"y":{"ha":696,"x_min":-1,"x_max":682,"o":"m 39 -218 q 99 -249 75 -249 q 172 -212 140 -249 q 262 -60 214 -164 q 294 7 275 -33 l 16 636 l 134 636 l 353 140 l 572 636 l 682 636 l 401 12 q 206 -308 288 -250 q 106 -336 165 -336 q -1 -285 47 -336 l 39 -218 z "},"z":{"ha":659,"x_min":45,"x_max":614,"o":"m 75 636 l 603 636 l 231 87 l 614 87 l 614 0 l 45 0 l 418 549 l 75 549 l 75 636 z "},"{":{"ha":452,"x_min":36,"x_max":370,"o":"m 145 334 q 217 296 191 319 q 276 118 276 248 q 268 -8 276 77 q 260 -113 260 -94 q 263 -152 260 -132 q 275 -199 266 -172 q 370 -299 296 -254 l 353 -354 q 151 -103 151 -299 q 159 21 151 -52 q 167 131 167 94 q 153 205 167 167 q 119 263 140 243 q 36 303 79 303 l 36 364 q 119 404 79 364 q 167 549 167 451 q 159 646 167 573 q 151 770 151 719 q 353 1021 151 966 l 370 966 q 275 866 296 921 q 260 791 260 822 q 268 675 260 761 q 276 535 276 590 q 260 437 276 481 q 217 371 244 393 q 145 334 191 349 z "},"|":{"ha":210,"x_min":68,"x_max":142,"o":"m 142 1002 l 142 -331 l 68 -331 l 68 1002 l 142 1002 z "},"}":{"ha":452,"x_min":82,"x_max":416,"o":"m 307 334 q 235 371 262 349 q 176 549 176 420 q 184 675 176 590 q 193 780 193 761 q 190 819 193 799 q 176 866 186 839 q 82 966 157 921 l 100 1021 q 302 770 302 966 q 294 646 302 719 q 286 537 286 573 q 299 463 286 500 q 334 404 313 425 q 416 364 374 364 l 416 303 q 334 263 374 303 q 286 118 286 216 q 294 21 286 94 q 302 -103 302 -52 q 100 -354 302 -299 l 82 -299 q 176 -199 157 -254 q 193 -124 193 -155 q 184 -8 193 -94 q 176 132 176 77 q 192 230 176 186 q 235 296 208 274 q 307 334 262 319 z "},"~":{"ha":776,"x_min":40,"x_max":736,"o":"m 113 287 l 40 332 q 254 471 139 471 q 348 454 296 471 q 448 418 399 436 q 532 401 496 401 q 663 474 606 401 l 736 429 q 522 290 637 290 q 429 307 480 290 q 329 342 378 325 q 244 360 280 360 q 113 287 171 360 z "}," ":{"ha":395,"x_min":0,"x_max":0,"o":""},"¡":{"ha":300,"x_min":68,"x_max":231,"o":"m 230 642 q 207 584 230 608 q 150 559 183 559 q 93 584 117 559 q 70 642 70 608 q 93 700 70 675 q 150 724 117 724 q 207 700 183 724 q 230 642 230 675 m 231 -233 l 68 -233 l 112 399 l 174 399 l 231 -233 z "},"£":{"ha":713,"x_min":87,"x_max":662,"o":"m 245 588 q 282 456 245 533 l 532 456 l 532 382 l 317 382 q 332 293 332 342 q 307 199 332 243 q 228 104 282 156 q 389 136 311 136 q 662 63 528 136 l 608 -12 q 387 48 488 48 q 205 18 291 48 q 128 -12 180 9 l 87 75 q 182 170 141 115 q 222 278 222 224 q 203 382 222 332 l 106 382 l 106 456 l 170 456 q 136 589 136 530 q 202 739 136 680 q 374 799 268 799 q 581 747 506 799 l 557 660 q 382 711 481 711 q 286 679 326 711 q 245 593 245 646 l 245 588 z "},"¤":{"ha":766,"x_min":115,"x_max":651,"o":"m 330 395 q 319 384 330 395 q 308 342 308 373 q 330 289 308 311 q 383 267 352 267 q 436 289 414 267 q 458 342 458 311 q 436 395 458 373 q 383 417 414 417 q 330 395 352 417 m 254 264 q 233 341 233 300 q 254 418 233 383 l 115 557 l 168 610 l 307 471 q 384 492 342 492 q 460 471 425 492 l 599 610 l 651 557 l 513 418 q 534 342 534 383 q 513 265 534 300 l 651 127 l 598 74 l 460 212 q 383 191 425 191 q 307 212 342 191 l 168 74 l 115 126 l 254 264 z "},"¦":{"ha":210,"x_min":68,"x_max":142,"o":"m 142 202 l 142 -331 l 68 -331 l 68 202 l 142 202 m 142 1002 l 142 469 l 68 469 l 68 1002 l 142 1002 z "},"¨":{"ha":640,"x_min":80,"x_max":560,"o":"m 80 806 m 80 888 q 103 946 80 922 q 160 970 127 970 q 217 946 193 970 q 240 888 240 922 q 217 830 240 854 q 160 806 193 806 q 103 830 127 806 q 80 888 80 854 m 400 888 q 424 946 400 922 q 480 970 447 970 q 537 946 513 970 q 560 888 560 922 q 537 830 560 854 q 480 806 513 806 q 424 830 447 806 q 400 888 400 854 z "},"«":{"ha":663,"x_min":12,"x_max":592,"o":"m 438 356 l 592 182 l 570 114 l 331 356 l 570 598 l 592 530 l 438 356 m 127 356 l 317 182 l 294 114 l 12 356 l 294 598 l 317 530 l 127 356 z "},"¶":{"ha":651,"x_min":45,"x_max":525,"o":"m 449 637 l 449 0 l 374 0 l 374 637 l 300 637 l 300 0 l 225 0 l 225 317 q 139 345 180 317 q 71 420 97 373 q 45 518 45 467 q 100 653 45 595 q 225 711 155 711 l 525 711 l 525 637 l 449 637 z "},"»":{"ha":663,"x_min":71,"x_max":651,"o":"m 225 356 l 71 530 l 94 598 l 332 356 l 94 114 l 71 182 l 225 356 m 536 356 l 347 530 l 369 598 l 651 356 l 369 114 l 347 182 l 536 356 z "},"¿":{"ha":585,"x_min":73,"x_max":517,"o":"m 341 396 q 377 279 377 329 q 357 184 377 229 q 308 101 337 140 q 251 24 279 62 q 182 -141 182 -68 q 222 -215 182 -183 q 337 -246 262 -246 q 484 -203 412 -246 l 517 -277 q 400 -327 450 -319 q 298 -334 350 -334 q 194 -311 247 -334 q 107 -243 141 -288 q 73 -147 73 -198 q 93 -46 73 -96 q 141 44 113 3 q 199 125 170 86 q 268 270 268 218 q 250 382 268 321 l 341 396 m 386 589 q 362 531 386 555 q 306 507 339 507 q 249 531 273 507 q 226 589 226 555 q 249 647 226 623 q 306 671 273 671 q 362 647 339 671 q 386 589 386 623 z "},"À":{"ha":901,"x_min":45,"x_max":855,"o":"m 45 0 m 633 274 l 261 274 l 159 0 l 45 0 l 399 943 l 501 943 l 855 0 l 734 0 l 633 274 m 597 369 l 447 776 l 296 369 l 597 369 m 281 1308 l 409 1308 l 506 1083 l 444 1053 l 281 1308 z "},"Á":{"ha":901,"x_min":45,"x_max":855,"o":"m 45 0 m 633 274 l 261 274 l 159 0 l 45 0 l 399 943 l 501 943 l 855 0 l 734 0 l 633 274 m 597 369 l 447 776 l 296 369 l 597 369 m 619 1308 l 457 1053 l 395 1083 l 492 1308 l 619 1308 z "},"Â":{"ha":901,"x_min":45,"x_max":855,"o":"m 45 0 m 633 274 l 261 274 l 159 0 l 45 0 l 399 943 l 501 943 l 855 0 l 734 0 l 633 274 m 597 369 l 447 776 l 296 369 l 597 369 m 450 1222 l 292 1053 l 241 1086 l 387 1290 l 514 1290 l 660 1086 l 609 1053 l 450 1222 z "},"Ã":{"ha":901,"x_min":45,"x_max":855,"o":"m 45 0 m 633 274 l 261 274 l 159 0 l 45 0 l 399 943 l 501 943 l 855 0 l 734 0 l 633 274 m 597 369 l 447 776 l 296 369 l 597 369 m 266 1058 l 218 1099 q 336 1215 267 1193 q 375 1220 353 1220 q 449 1190 397 1220 q 523 1160 500 1160 q 574 1177 546 1160 q 621 1227 602 1193 l 668 1186 q 551 1069 621 1093 q 511 1064 533 1064 q 438 1095 489 1064 q 364 1125 387 1125 q 313 1108 341 1125 q 266 1058 285 1092 z "},"Ä":{"ha":901,"x_min":45,"x_max":855,"o":"m 45 0 m 633 274 l 261 274 l 159 0 l 45 0 l 399 943 l 501 943 l 855 0 l 734 0 l 633 274 m 597 369 l 447 776 l 296 369 l 597 369 m 210 1113 m 210 1195 q 234 1253 210 1229 q 290 1277 257 1277 q 347 1253 323 1277 q 370 1195 370 1229 q 347 1137 370 1161 q 290 1113 323 1113 q 234 1137 257 1113 q 210 1195 210 1161 m 530 1195 q 554 1253 530 1229 q 610 1277 577 1277 q 667 1253 644 1277 q 690 1195 690 1229 q 667 1137 690 1161 q 610 1113 644 1113 q 554 1137 577 1113 q 530 1195 530 1161 z "},"Å":{"ha":901,"x_min":45,"x_max":855,"o":"m 45 0 m 633 274 l 261 274 l 159 0 l 45 0 l 399 943 l 501 943 l 855 0 l 734 0 l 633 274 m 597 369 l 447 776 l 296 369 l 597 369 m 450 1199 q 405 1180 424 1199 q 386 1135 386 1162 q 405 1089 386 1108 q 450 1071 424 1071 q 496 1089 477 1071 q 515 1135 515 1108 q 496 1180 515 1162 q 450 1199 477 1199 m 328 1135 q 364 1221 328 1185 q 450 1257 400 1257 q 536 1221 500 1257 q 572 1135 572 1185 q 536 1048 572 1084 q 450 1013 500 1013 q 364 1048 400 1013 q 328 1135 328 1084 z "},"Æ":{"ha":1233,"x_min":45,"x_max":1164,"o":"m 747 437 l 747 94 l 1164 95 l 1164 0 l 625 0 l 625 274 l 332 274 l 173 0 l 45 0 l 591 943 l 1164 943 l 1164 849 l 747 849 l 747 532 l 1031 532 l 1031 437 l 747 437 m 625 369 l 625 781 l 386 368 l 625 369 z "},"Ç":{"ha":851,"x_min":33,"x_max":791,"o":"m 502 83 q 731 166 621 83 l 791 85 q 672 16 719 33 q 470 -12 597 -12 l 460 -12 q 450 -72 450 -42 q 508 -115 484 -81 q 532 -200 532 -150 q 504 -281 532 -251 q 416 -335 475 -311 l 363 -284 q 428 -247 405 -267 q 450 -193 450 -227 q 428 -138 450 -159 q 366 -117 405 -117 q 393 -7 366 -54 q 237 49 307 6 q 85 219 138 110 q 33 472 33 329 q 85 724 33 615 q 237 895 138 833 q 470 956 337 956 q 648 937 597 956 q 725 902 699 918 q 791 858 751 887 l 731 777 q 502 861 621 861 l 494 861 q 354 828 418 861 q 186 616 235 766 q 163 471 163 547 q 186 327 163 396 q 250 202 209 257 q 354 115 291 148 q 494 83 418 83 l 502 83 z "},"È":{"ha":730,"x_min":122,"x_max":661,"o":"m 122 0 m 245 437 l 245 95 l 661 95 l 661 0 l 122 0 l 122 943 l 661 943 l 661 849 l 245 849 l 245 532 l 528 532 l 528 437 l 245 437 m 216 1308 l 344 1308 l 441 1083 l 378 1053 l 216 1308 z "},"É":{"ha":730,"x_min":122,"x_max":661,"o":"m 122 0 m 245 437 l 245 95 l 661 95 l 661 0 l 122 0 l 122 943 l 661 943 l 661 849 l 245 849 l 245 532 l 528 532 l 528 437 l 245 437 m 554 1308 l 392 1053 l 330 1083 l 427 1308 l 554 1308 z "},"Ê":{"ha":730,"x_min":122,"x_max":661,"o":"m 122 0 m 245 437 l 245 95 l 661 95 l 661 0 l 122 0 l 122 943 l 661 943 l 661 849 l 245 849 l 245 532 l 528 532 l 528 437 l 245 437 m 385 1222 l 227 1053 l 176 1086 l 321 1290 l 449 1290 l 595 1086 l 544 1053 l 385 1222 z "},"Ë":{"ha":730,"x_min":122,"x_max":661,"o":"m 122 0 m 245 437 l 245 95 l 661 95 l 661 0 l 122 0 l 122 943 l 661 943 l 661 849 l 245 849 l 245 532 l 528 532 l 528 437 l 245 437 m 145 1113 m 145 1195 q 169 1253 145 1229 q 225 1277 192 1277 q 282 1253 258 1277 q 305 1195 305 1229 q 282 1137 305 1161 q 225 1113 258 1113 q 169 1137 192 1113 q 145 1195 145 1161 m 465 1195 q 489 1253 465 1229 q 545 1277 512 1277 q 602 1253 578 1277 q 625 1195 625 1229 q 602 1137 625 1161 q 545 1113 578 1113 q 489 1137 512 1113 q 465 1195 465 1161 z "},"Ì":{"ha":367,"x_min":14,"x_max":245,"o":"m 14 0 m 245 943 l 245 0 l 122 0 l 122 943 l 245 943 m 14 1308 l 142 1308 l 239 1083 l 176 1053 l 14 1308 z "},"Í":{"ha":367,"x_min":122,"x_max":352,"o":"m 122 0 m 245 943 l 245 0 l 122 0 l 122 943 l 245 943 m 352 1308 l 190 1053 l 127 1083 l 224 1308 l 352 1308 z "},"Î":{"ha":367,"x_min":-26,"x_max":393,"o":"m 0 0 m 245 943 l 245 0 l 122 0 l 122 943 l 245 943 m 183 1222 l 24 1053 l -26 1086 l 119 1290 l 247 1290 l 393 1086 l 342 1053 l 183 1222 z "},"Ï":{"ha":367,"x_min":-57,"x_max":423,"o":"m 0 0 m 245 943 l 245 0 l 122 0 l 122 943 l 245 943 m -57 1113 m -57 1195 q -34 1253 -57 1229 q 23 1277 -10 1277 q 80 1253 56 1277 q 103 1195 103 1229 q 80 1137 103 1161 q 23 1113 56 1113 q -34 1137 -10 1113 q -57 1195 -57 1161 m 263 1195 q 287 1253 263 1229 q 343 1277 310 1277 q 400 1253 376 1277 q 423 1195 423 1229 q 400 1137 423 1161 q 343 1113 376 1113 q 287 1137 310 1113 q 263 1195 263 1161 z "},"Ð":{"ha":932,"x_min":41,"x_max":902,"o":"m 746 111 q 711 81 746 111 q 585 20 675 52 q 372 -12 495 -12 q 122 9 249 -12 l 122 445 l 41 445 l 41 539 l 122 539 l 122 930 q 357 956 265 956 q 527 935 450 956 q 672 874 604 915 q 791 775 740 833 q 872 639 842 718 q 902 457 902 559 q 860 262 902 355 q 746 111 817 170 m 244 444 l 244 95 q 379 83 307 83 q 521 108 451 83 q 648 179 591 133 q 740 301 705 226 q 774 459 774 376 q 750 607 774 542 q 684 718 725 672 q 591 797 644 764 q 370 861 489 861 q 245 849 298 861 l 245 539 l 342 539 l 342 444 l 244 444 z "},"Ñ":{"ha":939,"x_min":122,"x_max":817,"o":"m 122 0 m 817 943 l 817 0 l 694 0 l 245 707 l 245 0 l 122 0 l 122 943 l 245 943 l 694 236 l 694 943 l 817 943 m 285 1058 l 237 1099 q 355 1215 286 1193 q 394 1220 372 1220 q 468 1190 416 1220 q 542 1160 519 1160 q 593 1177 565 1160 q 640 1227 621 1193 l 687 1186 q 570 1069 640 1093 q 530 1064 552 1064 q 457 1095 508 1064 q 383 1125 406 1125 q 332 1108 360 1125 q 285 1058 304 1092 z "},"Ò":{"ha":979,"x_min":31,"x_max":949,"o":"m 31 0 m 150 819 q 295 919 207 883 q 481 956 383 956 q 875 759 749 956 q 949 477 949 640 q 872 191 949 312 q 652 14 791 61 q 480 -12 578 -12 q 292 25 381 -12 q 146 129 203 63 q 31 477 31 265 q 150 819 31 686 m 673 809 q 493 862 597 862 q 312 811 389 862 q 161 477 161 710 q 311 136 161 240 q 478 83 387 83 q 736 201 647 83 q 821 477 821 315 q 673 809 821 705 m 324 1308 l 452 1308 l 549 1083 l 486 1053 l 324 1308 z "},"Ó":{"ha":979,"x_min":31,"x_max":949,"o":"m 31 0 m 150 819 q 295 919 207 883 q 481 956 383 956 q 875 759 749 956 q 949 477 949 640 q 872 191 949 312 q 652 14 791 61 q 480 -12 578 -12 q 292 25 381 -12 q 146 129 203 63 q 31 477 31 265 q 150 819 31 686 m 673 809 q 493 862 597 862 q 312 811 389 862 q 161 477 161 710 q 311 136 161 240 q 478 83 387 83 q 736 201 647 83 q 821 477 821 315 q 673 809 821 705 m 662 1308 l 500 1053 l 437 1083 l 534 1308 l 662 1308 z "},"Ô":{"ha":979,"x_min":31,"x_max":949,"o":"m 31 0 m 150 819 q 295 919 207 883 q 481 956 383 956 q 875 759 749 956 q 949 477 949 640 q 872 191 949 312 q 652 14 791 61 q 480 -12 578 -12 q 292 25 381 -12 q 146 129 203 63 q 31 477 31 265 q 150 819 31 686 m 673 809 q 493 862 597 862 q 312 811 389 862 q 161 477 161 710 q 311 136 161 240 q 478 83 387 83 q 736 201 647 83 q 821 477 821 315 q 673 809 821 705 m 493 1222 l 334 1053 l 283 1086 l 429 1290 l 557 1290 l 703 1086 l 652 1053 l 493 1222 z "},"Õ":{"ha":979,"x_min":31,"x_max":949,"o":"m 31 0 m 150 819 q 295 919 207 883 q 481 956 383 956 q 875 759 749 956 q 949 477 949 640 q 872 191 949 312 q 652 14 791 61 q 480 -12 578 -12 q 292 25 381 -12 q 146 129 203 63 q 31 477 31 265 q 150 819 31 686 m 673 809 q 493 862 597 862 q 312 811 389 862 q 161 477 161 710 q 311 136 161 240 q 478 83 387 83 q 736 201 647 83 q 821 477 821 315 q 673 809 821 705 m 309 1058 l 261 1099 q 379 1215 309 1193 q 418 1220 396 1220 q 491 1190 440 1220 q 566 1160 543 1160 q 616 1177 589 1160 q 663 1227 644 1193 l 711 1186 q 593 1069 663 1093 q 554 1064 576 1064 q 480 1095 532 1064 q 407 1125 429 1125 q 356 1108 384 1125 q 309 1058 328 1092 z "},"Ö":{"ha":979,"x_min":31,"x_max":949,"o":"m 31 0 m 150 819 q 295 919 207 883 q 481 956 383 956 q 875 759 749 956 q 949 477 949 640 q 872 191 949 312 q 652 14 791 61 q 480 -12 578 -12 q 292 25 381 -12 q 146 129 203 63 q 31 477 31 265 q 150 819 31 686 m 673 809 q 493 862 597 862 q 312 811 389 862 q 161 477 161 710 q 311 136 161 240 q 478 83 387 83 q 736 201 647 83 q 821 477 821 315 q 673 809 821 705 m 253 1113 m 253 1195 q 276 1253 253 1229 q 333 1277 300 1277 q 390 1253 366 1277 q 413 1195 413 1229 q 390 1137 413 1161 q 333 1113 366 1113 q 276 1137 300 1113 q 253 1195 253 1161 m 573 1195 q 596 1253 573 1229 q 653 1277 620 1277 q 710 1253 686 1277 q 733 1195 733 1229 q 710 1137 733 1161 q 653 1113 686 1113 q 596 1137 620 1113 q 573 1195 573 1161 z "},"×":{"ha":766,"x_min":115,"x_max":651,"o":"m 384 394 l 599 610 l 651 557 l 436 342 l 651 127 l 598 74 l 383 289 l 168 74 l 115 126 l 331 341 l 115 557 l 168 610 l 384 394 z "},"Ø":{"ha":979,"x_min":31,"x_max":949,"o":"m 680 804 q 495 862 602 862 q 312 811 389 862 q 161 477 161 710 q 215 241 161 340 l 680 804 m 821 828 q 949 477 949 696 q 780 84 949 227 q 492 -12 665 -12 q 201 78 318 -12 l 137 0 l 69 65 l 134 144 q 31 477 31 274 q 149 819 31 686 q 295 919 207 883 q 493 956 383 956 q 748 887 641 956 l 795 943 l 863 878 l 821 828 m 746 737 l 273 165 q 493 83 359 83 q 632 115 570 83 q 736 201 695 147 q 821 474 821 315 q 746 737 821 633 z "},"Ù":{"ha":888,"x_min":122,"x_max":766,"o":"m 122 0 m 462 -12 q 122 297 122 -12 l 122 943 l 245 943 l 245 330 q 303 143 245 203 q 457 83 361 83 q 650 348 650 83 l 650 943 l 766 943 l 766 318 q 686 78 766 168 q 462 -12 606 -12 m 275 1296 l 403 1296 l 500 1072 l 437 1042 l 275 1296 z "},"Ú":{"ha":888,"x_min":122,"x_max":766,"o":"m 122 0 m 462 -12 q 122 297 122 -12 l 122 943 l 245 943 l 245 330 q 303 143 245 203 q 457 83 361 83 q 650 348 650 83 l 650 943 l 766 943 l 766 318 q 686 78 766 168 q 462 -12 606 -12 m 613 1296 l 451 1042 l 389 1072 l 486 1296 l 613 1296 z "},"Û":{"ha":888,"x_min":122,"x_max":766,"o":"m 122 0 m 462 -12 q 122 297 122 -12 l 122 943 l 245 943 l 245 330 q 303 143 245 203 q 457 83 361 83 q 650 348 650 83 l 650 943 l 766 943 l 766 318 q 686 78 766 168 q 462 -12 606 -12 m 444 1211 l 286 1042 l 235 1075 l 380 1278 l 508 1278 l 654 1075 l 603 1042 l 444 1211 z "},"Ü":{"ha":888,"x_min":122,"x_max":766,"o":"m 122 0 m 462 -12 q 122 297 122 -12 l 122 943 l 245 943 l 245 330 q 303 143 245 203 q 457 83 361 83 q 650 348 650 83 l 650 943 l 766 943 l 766 318 q 686 78 766 168 q 462 -12 606 -12 m 204 1101 m 204 1183 q 228 1241 204 1217 q 284 1265 251 1265 q 341 1241 317 1265 q 364 1183 364 1217 q 341 1125 364 1149 q 284 1101 317 1101 q 228 1125 251 1101 q 204 1183 204 1149 m 524 1183 q 548 1241 524 1217 q 604 1265 571 1265 q 661 1241 637 1265 q 684 1183 684 1217 q 661 1125 684 1149 q 604 1101 637 1101 q 548 1125 571 1101 q 524 1183 524 1149 z "},"Ý":{"ha":842,"x_min":40,"x_max":802,"o":"m 40 0 m 688 943 l 802 943 l 482 419 l 482 0 l 359 0 l 359 420 l 40 943 l 161 943 l 425 511 l 688 943 m 589 1308 l 427 1053 l 365 1083 l 462 1308 l 589 1308 z "},"Þ":{"ha":734,"x_min":122,"x_max":702,"o":"m 290 282 q 506 327 440 282 q 572 472 572 371 q 506 617 572 572 q 290 662 440 662 l 245 662 l 245 282 l 290 282 m 245 187 l 245 0 l 122 0 l 122 943 l 245 943 l 245 757 l 360 757 q 538 720 460 757 q 659 618 616 683 q 702 472 702 553 q 659 325 702 390 q 538 224 616 260 q 360 187 460 187 l 245 187 z "},"ß":{"ha":788,"x_min":111,"x_max":720,"o":"m 342 906 q 251 861 282 906 q 220 734 220 815 l 220 0 l 111 0 l 111 708 q 341 993 111 993 q 553 924 494 993 q 608 736 608 860 q 570 627 608 668 q 505 572 538 593 q 454 537 471 551 q 415 472 415 507 q 438 415 415 436 q 525 372 460 394 l 578 354 q 685 288 650 329 q 720 169 720 247 q 661 39 720 91 q 498 -12 601 -12 q 392 -1 443 -12 q 279 46 342 10 l 319 130 q 408 87 371 99 q 494 75 444 75 q 611 176 611 75 q 499 274 611 237 l 446 292 q 341 366 375 317 q 307 459 307 414 q 317 531 307 505 q 345 575 328 558 q 382 607 361 593 q 423 635 403 622 q 461 663 444 648 q 499 745 499 695 q 342 906 499 906 z "},"à":{"ha":606,"x_min":52,"x_max":533,"o":"m 52 0 m 410 286 q 161 162 161 286 q 181 100 161 129 q 229 72 202 72 l 255 72 q 414 229 404 72 l 414 286 l 410 286 m 98 606 q 298 648 220 648 q 435 610 376 648 q 513 495 493 571 q 524 321 524 452 l 524 109 q 533 0 524 49 l 423 0 q 414 63 414 28 l 414 68 q 377 33 397 47 q 241 -14 313 -14 q 75 72 121 -14 q 52 159 52 115 q 191 331 52 278 q 402 363 274 363 l 414 363 l 414 431 q 386 533 414 506 q 275 564 353 564 q 104 521 198 564 l 98 606 m 129 1000 l 256 1000 l 353 776 l 291 746 l 129 1000 z "},"á":{"ha":606,"x_min":52,"x_max":533,"o":"m 52 0 m 410 286 q 161 162 161 286 q 181 100 161 129 q 229 72 202 72 l 255 72 q 414 229 404 72 l 414 286 l 410 286 m 98 606 q 298 648 220 648 q 435 610 376 648 q 513 495 493 571 q 524 321 524 452 l 524 109 q 533 0 524 49 l 423 0 q 414 63 414 28 l 414 68 q 377 33 397 47 q 241 -14 313 -14 q 75 72 121 -14 q 52 159 52 115 q 191 331 52 278 q 402 363 274 363 l 414 363 l 414 431 q 386 533 414 506 q 275 564 353 564 q 104 521 198 564 l 98 606 m 467 1000 l 304 746 l 242 776 l 339 1000 l 467 1000 z "},"â":{"ha":606,"x_min":52,"x_max":533,"o":"m 52 0 m 410 286 q 161 162 161 286 q 181 100 161 129 q 229 72 202 72 l 255 72 q 414 229 404 72 l 414 286 l 410 286 m 98 606 q 298 648 220 648 q 435 610 376 648 q 513 495 493 571 q 524 321 524 452 l 524 109 q 533 0 524 49 l 423 0 q 414 63 414 28 l 414 68 q 377 33 397 47 q 241 -14 313 -14 q 75 72 121 -14 q 52 159 52 115 q 191 331 52 278 q 402 363 274 363 l 414 363 l 414 431 q 386 533 414 506 q 275 564 353 564 q 104 521 198 564 l 98 606 m 298 915 l 139 746 l 88 779 l 234 983 l 361 983 l 507 779 l 456 746 l 298 915 z "},"ã":{"ha":606,"x_min":52,"x_max":533,"o":"m 52 0 m 410 286 q 161 162 161 286 q 181 100 161 129 q 229 72 202 72 l 255 72 q 414 229 404 72 l 414 286 l 410 286 m 98 606 q 298 648 220 648 q 435 610 376 648 q 513 495 493 571 q 524 321 524 452 l 524 109 q 533 0 524 49 l 423 0 q 414 63 414 28 l 414 68 q 377 33 397 47 q 241 -14 313 -14 q 75 72 121 -14 q 52 159 52 115 q 191 331 52 278 q 402 363 274 363 l 414 363 l 414 431 q 386 533 414 506 q 275 564 353 564 q 104 521 198 564 l 98 606 m 113 751 l 66 791 q 184 907 114 886 q 223 913 201 913 q 296 883 245 913 q 370 853 347 853 q 421 869 393 853 q 468 920 449 886 l 515 879 q 398 762 468 786 q 358 757 380 757 q 285 787 336 757 q 211 818 234 818 q 160 801 189 818 q 113 751 132 785 z "},"ä":{"ha":606,"x_min":52,"x_max":538,"o":"m 52 0 m 410 286 q 161 162 161 286 q 181 100 161 129 q 229 72 202 72 l 255 72 q 414 229 404 72 l 414 286 l 410 286 m 98 606 q 298 648 220 648 q 435 610 376 648 q 513 495 493 571 q 524 321 524 452 l 524 109 q 533 0 524 49 l 423 0 q 414 63 414 28 l 414 68 q 377 33 397 47 q 241 -14 313 -14 q 75 72 121 -14 q 52 159 52 115 q 191 331 52 278 q 402 363 274 363 l 414 363 l 414 431 q 386 533 414 506 q 275 564 353 564 q 104 521 198 564 l 98 606 m 58 806 m 58 888 q 81 946 58 922 q 138 970 104 970 q 194 946 171 970 q 218 888 218 922 q 194 830 218 854 q 138 806 171 806 q 81 830 104 806 q 58 888 58 854 m 378 888 q 401 946 378 922 q 458 970 425 970 q 514 946 491 970 q 538 888 538 922 q 514 830 538 854 q 458 806 491 806 q 401 830 425 806 q 378 888 378 854 z "},"å":{"ha":606,"x_min":52,"x_max":533,"o":"m 52 0 m 410 286 q 161 162 161 286 q 181 100 161 129 q 229 72 202 72 l 255 72 q 414 229 404 72 l 414 286 l 410 286 m 98 606 q 298 648 220 648 q 435 610 376 648 q 513 495 493 571 q 524 321 524 452 l 524 109 q 533 0 524 49 l 423 0 q 414 63 414 28 l 414 68 q 377 33 397 47 q 241 -14 313 -14 q 75 72 121 -14 q 52 159 52 115 q 191 331 52 278 q 402 363 274 363 l 414 363 l 414 431 q 386 533 414 506 q 275 564 353 564 q 104 521 198 564 l 98 606 m 298 892 q 252 873 271 892 q 233 828 233 854 q 252 782 233 801 q 298 764 271 764 q 343 782 324 764 q 362 828 362 801 q 343 873 362 854 q 298 892 324 892 m 176 827 q 212 913 176 878 q 298 949 248 949 q 384 913 348 949 q 420 827 420 878 q 384 741 420 777 q 298 705 348 705 q 212 741 248 705 q 176 827 176 777 z "},"æ":{"ha":979,"x_min":46,"x_max":966,"o":"m 292 562 q 102 510 203 562 l 79 587 q 196 633 142 618 q 315 648 250 648 q 493 557 435 648 q 700 648 574 648 q 903 557 834 648 q 966 353 962 479 l 949 312 l 525 312 q 586 136 526 197 q 742 75 645 75 q 913 115 817 75 l 943 37 q 745 -12 869 -12 q 474 110 562 -12 q 371 21 436 55 q 224 -12 307 -12 q 94 25 142 -12 q 46 136 46 62 q 68 210 46 183 q 105 253 90 237 q 147 284 121 268 q 194 311 173 300 q 248 337 214 323 q 302 360 281 352 q 360 384 323 369 q 415 406 397 398 l 416 444 q 292 562 410 562 m 415 326 q 341 296 378 311 q 269 264 304 282 q 209 229 235 247 q 151 142 151 190 q 168 100 151 116 q 241 75 194 75 q 323 92 288 75 q 377 131 358 108 q 415 212 415 178 l 415 326 m 530 393 l 859 393 q 814 514 852 467 q 705 562 776 562 q 530 393 554 562 z "},"ç":{"ha":602,"x_min":41,"x_max":567,"o":"m 372 75 q 525 129 452 75 l 567 56 q 474 3 513 16 q 363 -12 434 -11 q 352 -72 352 -42 q 410 -115 386 -81 q 435 -200 435 -150 q 406 -281 435 -251 q 319 -335 377 -311 l 265 -284 q 330 -247 307 -267 q 353 -193 353 -227 q 330 -138 353 -159 q 268 -117 307 -117 q 294 -9 268 -56 q 123 78 189 5 q 41 318 41 168 q 123 558 41 468 q 345 648 205 648 q 471 634 429 648 q 567 581 513 620 l 525 507 q 372 561 452 561 l 368 561 q 210 490 269 561 q 151 318 151 418 q 210 146 151 218 q 368 75 269 75 l 372 75 z "},"è":{"ha":637,"x_min":41,"x_max":591,"o":"m 41 0 m 339 562 q 198 505 245 562 q 155 393 165 465 l 484 393 q 440 515 478 467 q 339 562 401 562 m 568 37 q 370 -12 495 -12 q 127 78 212 -12 q 41 318 41 168 q 168 601 41 513 q 326 648 239 648 q 529 557 460 648 q 591 353 587 479 l 575 312 l 151 312 q 211 137 152 199 q 368 75 270 75 q 539 115 443 75 l 568 37 m 167 1000 l 294 1000 l 391 776 l 329 746 l 167 1000 z "},"é":{"ha":637,"x_min":41,"x_max":591,"o":"m 41 0 m 339 562 q 198 505 245 562 q 155 393 165 465 l 484 393 q 440 515 478 467 q 339 562 401 562 m 568 37 q 370 -12 495 -12 q 127 78 212 -12 q 41 318 41 168 q 168 601 41 513 q 326 648 239 648 q 529 557 460 648 q 591 353 587 479 l 575 312 l 151 312 q 211 137 152 199 q 368 75 270 75 q 539 115 443 75 l 568 37 m 505 1000 l 342 746 l 280 776 l 377 1000 l 505 1000 z "},"ê":{"ha":637,"x_min":41,"x_max":591,"o":"m 41 0 m 339 562 q 198 505 245 562 q 155 393 165 465 l 484 393 q 440 515 478 467 q 339 562 401 562 m 568 37 q 370 -12 495 -12 q 127 78 212 -12 q 41 318 41 168 q 168 601 41 513 q 326 648 239 648 q 529 557 460 648 q 591 353 587 479 l 575 312 l 151 312 q 211 137 152 199 q 368 75 270 75 q 539 115 443 75 l 568 37 m 336 915 l 177 746 l 126 779 l 272 983 l 399 983 l 545 779 l 494 746 l 336 915 z "},"ë":{"ha":637,"x_min":41,"x_max":591,"o":"m 41 0 m 339 562 q 198 505 245 562 q 155 393 165 465 l 484 393 q 440 515 478 467 q 339 562 401 562 m 568 37 q 370 -12 495 -12 q 127 78 212 -12 q 41 318 41 168 q 168 601 41 513 q 326 648 239 648 q 529 557 460 648 q 591 353 587 479 l 575 312 l 151 312 q 211 137 152 199 q 368 75 270 75 q 539 115 443 75 l 568 37 m 96 806 m 96 888 q 119 946 96 922 q 176 970 142 970 q 232 946 209 970 q 256 888 256 922 q 232 830 256 854 q 176 806 209 806 q 119 830 142 806 q 96 888 96 854 m 416 888 q 439 946 416 922 q 496 970 463 970 q 552 946 529 970 q 576 888 576 922 q 552 830 576 854 q 496 806 529 806 q 439 830 463 806 q 416 888 416 854 z "},"ì":{"ha":371,"x_min":36,"x_max":260,"o":"m 36 0 m 260 636 l 260 0 l 151 0 l 151 549 l 38 549 l 38 636 l 260 636 m 36 1000 l 163 1000 l 260 776 l 198 746 l 36 1000 z "},"í":{"ha":371,"x_min":38,"x_max":374,"o":"m 38 0 m 260 636 l 260 0 l 151 0 l 151 549 l 38 549 l 38 636 l 260 636 m 374 1000 l 212 746 l 149 776 l 246 1000 l 374 1000 z "},"î":{"ha":371,"x_min":-5,"x_max":414,"o":"m 0 0 m 260 636 l 260 0 l 151 0 l 151 549 l 38 549 l 38 636 l 260 636 m 205 915 l 46 746 l -5 779 l 141 983 l 269 983 l 414 779 l 363 746 l 205 915 z "},"ï":{"ha":371,"x_min":-35,"x_max":445,"o":"m 0 0 m 260 636 l 260 0 l 151 0 l 151 549 l 38 549 l 38 636 l 260 636 m -35 806 m -35 888 q -12 946 -35 922 q 45 970 12 970 q 101 946 78 970 q 125 888 125 922 q 101 830 125 854 q 45 806 78 806 q -12 830 12 806 q -35 888 -35 854 m 285 888 q 308 946 285 922 q 365 970 332 970 q 421 946 398 970 q 445 888 445 922 q 421 830 445 854 q 365 806 398 806 q 308 830 332 806 q 285 888 285 854 z "},"ð":{"ha":686,"x_min":41,"x_max":645,"o":"m 151 318 q 273 88 151 134 q 339 75 306 75 q 399 83 373 75 q 451 112 426 92 q 494 163 477 132 q 534 358 534 234 q 518 510 534 435 q 363 562 450 562 q 214 496 277 562 q 151 318 151 431 m 479 631 q 405 765 449 703 l 277 688 l 239 751 l 357 823 q 228 916 290 895 l 282 1000 q 452 880 376 963 l 558 943 l 596 880 l 498 821 q 607 596 570 721 q 645 377 645 471 q 628 216 645 282 q 582 107 610 149 q 513 38 553 65 q 343 -12 441 -12 q 104 94 187 -12 q 41 317 41 174 q 134 554 41 460 q 366 648 227 648 q 479 631 432 648 z "},"ñ":{"ha":760,"x_min":111,"x_max":649,"o":"m 111 0 m 540 344 q 384 562 540 562 q 311 540 344 562 q 231 433 260 507 q 220 392 220 407 l 220 0 l 111 0 l 111 636 l 220 636 l 220 519 q 419 648 281 648 q 519 624 475 648 q 589 570 564 599 q 649 382 649 503 l 649 0 l 540 0 l 540 344 m 192 751 l 144 791 q 262 907 193 886 q 301 913 279 913 q 375 883 323 913 q 449 853 426 853 q 500 869 472 853 q 547 920 528 886 l 594 879 q 477 762 547 786 q 437 757 459 757 q 364 787 415 757 q 290 818 313 818 q 239 801 267 818 q 192 751 211 785 z "},"ò":{"ha":686,"x_min":41,"x_max":645,"o":"m 41 0 m 151 318 q 167 203 151 252 q 212 127 184 154 q 273 88 240 100 q 343 75 306 75 q 474 127 419 75 q 534 318 534 185 q 474 509 534 450 q 343 561 418 561 q 212 509 267 561 q 151 318 151 450 m 41 318 q 174 604 41 524 q 343 648 247 648 q 513 604 439 648 q 582 543 553 580 q 645 318 645 460 q 513 33 645 112 q 343 -12 440 -12 q 174 33 245 -12 q 104 94 134 56 q 41 318 41 174 m 174 1000 l 302 1000 l 399 776 l 336 746 l 174 1000 z "},"ó":{"ha":686,"x_min":41,"x_max":645,"o":"m 41 0 m 151 318 q 167 203 151 252 q 212 127 184 154 q 273 88 240 100 q 343 75 306 75 q 474 127 419 75 q 534 318 534 185 q 474 509 534 450 q 343 561 418 561 q 212 509 267 561 q 151 318 151 450 m 41 318 q 174 604 41 524 q 343 648 247 648 q 513 604 439 648 q 582 543 553 580 q 645 318 645 460 q 513 33 645 112 q 343 -12 440 -12 q 174 33 245 -12 q 104 94 134 56 q 41 318 41 174 m 512 1000 l 350 746 l 288 776 l 385 1000 l 512 1000 z "},"ô":{"ha":686,"x_min":41,"x_max":645,"o":"m 41 0 m 151 318 q 167 203 151 252 q 212 127 184 154 q 273 88 240 100 q 343 75 306 75 q 474 127 419 75 q 534 318 534 185 q 474 509 534 450 q 343 561 418 561 q 212 509 267 561 q 151 318 151 450 m 41 318 q 174 604 41 524 q 343 648 247 648 q 513 604 439 648 q 582 543 553 580 q 645 318 645 460 q 513 33 645 112 q 343 -12 440 -12 q 174 33 245 -12 q 104 94 134 56 q 41 318 41 174 m 343 915 l 184 746 l 134 779 l 279 983 l 407 983 l 553 779 l 502 746 l 343 915 z "},"õ":{"ha":686,"x_min":41,"x_max":645,"o":"m 41 0 m 151 318 q 167 203 151 252 q 212 127 184 154 q 273 88 240 100 q 343 75 306 75 q 474 127 419 75 q 534 318 534 185 q 474 509 534 450 q 343 561 418 561 q 212 509 267 561 q 151 318 151 450 m 41 318 q 174 604 41 524 q 343 648 247 648 q 513 604 439 648 q 582 543 553 580 q 645 318 645 460 q 513 33 645 112 q 343 -12 440 -12 q 174 33 245 -12 q 104 94 134 56 q 41 318 41 174 m 159 751 l 111 791 q 229 907 159 886 q 268 913 246 913 q 341 883 290 913 q 416 853 393 853 q 467 869 439 853 q 513 920 494 886 l 561 879 q 444 762 513 786 q 404 757 426 757 q 331 787 382 757 q 257 818 279 818 q 206 801 234 818 q 159 751 178 785 z "},"ö":{"ha":686,"x_min":41,"x_max":645,"o":"m 41 0 m 151 318 q 167 203 151 252 q 212 127 184 154 q 273 88 240 100 q 343 75 306 75 q 474 127 419 75 q 534 318 534 185 q 474 509 534 450 q 343 561 418 561 q 212 509 267 561 q 151 318 151 450 m 41 318 q 174 604 41 524 q 343 648 247 648 q 513 604 439 648 q 582 543 553 580 q 645 318 645 460 q 513 33 645 112 q 343 -12 440 -12 q 174 33 245 -12 q 104 94 134 56 q 41 318 41 174 m 103 806 m 103 888 q 126 946 103 922 q 183 970 150 970 q 240 946 216 970 q 263 888 263 922 q 240 830 263 854 q 183 806 216 806 q 126 830 150 806 q 103 888 103 854 m 423 888 q 447 946 423 922 q 503 970 470 970 q 560 946 536 970 q 583 888 583 922 q 560 830 583 854 q 503 806 536 806 q 447 830 470 806 q 423 888 423 854 z "},"÷":{"ha":766,"x_min":41,"x_max":725,"o":"m 725 304 l 41 304 l 41 378 l 725 378 l 725 304 m 303 562 q 327 620 303 596 q 383 644 350 644 q 440 620 416 644 q 463 562 463 596 q 440 504 463 528 q 383 480 416 480 q 327 504 350 480 q 303 562 303 528 m 303 121 q 327 179 303 155 q 383 203 350 203 q 440 179 416 203 q 463 121 463 155 q 440 63 463 87 q 383 39 416 39 q 327 63 350 39 q 303 121 303 87 z "},"ø":{"ha":686,"x_min":41,"x_max":645,"o":"m 41 318 q 174 604 41 524 q 354 648 246 648 q 538 586 461 648 l 583 636 l 629 590 l 583 540 q 645 318 645 456 q 513 33 645 113 q 333 -12 440 -12 q 148 50 225 -12 l 103 0 l 58 46 l 103 96 q 41 318 41 180 m 509 456 l 214 125 q 343 75 264 75 q 473 127 419 75 q 534 318 534 185 q 509 456 534 400 m 472 511 q 343 561 422 561 q 212 509 267 561 q 151 318 151 450 q 176 180 151 236 l 472 511 z "},"ù":{"ha":760,"x_min":111,"x_max":649,"o":"m 111 0 m 540 117 q 341 -12 479 -12 q 241 13 286 -12 q 171 66 197 37 q 129 143 146 94 q 111 254 111 192 l 111 636 l 220 636 l 220 292 q 376 75 220 75 q 450 96 416 75 q 530 203 500 129 q 540 244 540 229 l 540 636 l 649 636 l 649 0 l 540 0 l 540 117 m 208 1000 l 335 1000 l 432 776 l 370 746 l 208 1000 z "},"ú":{"ha":760,"x_min":111,"x_max":649,"o":"m 111 0 m 540 117 q 341 -12 479 -12 q 241 13 286 -12 q 171 66 197 37 q 129 143 146 94 q 111 254 111 192 l 111 636 l 220 636 l 220 292 q 376 75 220 75 q 450 96 416 75 q 530 203 500 129 q 540 244 540 229 l 540 636 l 649 636 l 649 0 l 540 0 l 540 117 m 545 1000 l 383 746 l 321 776 l 418 1000 l 545 1000 z "},"û":{"ha":760,"x_min":111,"x_max":649,"o":"m 111 0 m 540 117 q 341 -12 479 -12 q 241 13 286 -12 q 171 66 197 37 q 129 143 146 94 q 111 254 111 192 l 111 636 l 220 636 l 220 292 q 376 75 220 75 q 450 96 416 75 q 530 203 500 129 q 540 244 540 229 l 540 636 l 649 636 l 649 0 l 540 0 l 540 117 m 376 915 l 218 746 l 167 779 l 313 983 l 440 983 l 586 779 l 535 746 l 376 915 z "},"ü":{"ha":760,"x_min":111,"x_max":649,"o":"m 111 0 m 540 117 q 341 -12 479 -12 q 241 13 286 -12 q 171 66 197 37 q 129 143 146 94 q 111 254 111 192 l 111 636 l 220 636 l 220 292 q 376 75 220 75 q 450 96 416 75 q 530 203 500 129 q 540 244 540 229 l 540 636 l 649 636 l 649 0 l 540 0 l 540 117 m 136 806 m 136 888 q 160 946 136 922 q 216 970 183 970 q 273 946 250 970 q 296 888 296 922 q 273 830 296 854 q 216 806 250 806 q 160 830 183 806 q 136 888 136 854 m 456 888 q 480 946 456 922 q 536 970 503 970 q 593 946 570 970 q 616 888 616 922 q 593 830 616 854 q 536 806 570 806 q 480 830 503 806 q 456 888 456 854 z "},"ý":{"ha":696,"x_min":-1,"x_max":682,"o":"m 0 0 m 39 -218 q 99 -249 75 -249 q 172 -212 140 -249 q 262 -60 214 -164 q 294 7 275 -33 l 16 636 l 134 636 l 353 140 l 572 636 l 682 636 l 401 12 q 206 -308 288 -250 q 106 -336 165 -336 q -1 -285 47 -336 l 39 -218 m 518 1000 l 356 746 l 294 776 l 391 1000 l 518 1000 z "},"þ":{"ha":721,"x_min":111,"x_max":680,"o":"m 223 104 q 334 75 277 75 q 428 94 390 75 q 498 147 467 113 q 550 231 530 180 q 570 340 570 282 q 520 498 570 435 q 395 561 469 561 q 300 527 345 561 q 223 439 254 492 l 223 104 m 406 648 q 548 605 484 648 q 646 492 612 562 q 680 343 680 422 q 588 86 680 185 q 359 -12 496 -12 q 223 9 302 -12 l 223 -334 l 111 -334 l 111 1000 l 223 1000 l 223 562 q 406 648 300 648 z "},"ÿ":{"ha":696,"x_min":-1,"x_max":682,"o":"m 0 0 m 39 -218 q 99 -249 75 -249 q 172 -212 140 -249 q 262 -60 214 -164 q 294 7 275 -33 l 16 636 l 134 636 l 353 140 l 572 636 l 682 636 l 401 12 q 206 -308 288 -250 q 106 -336 165 -336 q -1 -285 47 -336 l 39 -218 m 109 806 m 109 888 q 133 946 109 922 q 189 970 156 970 q 246 946 222 970 q 269 888 269 922 q 246 830 269 854 q 189 806 222 806 q 133 830 156 806 q 109 888 109 854 m 429 888 q 453 946 429 922 q 509 970 476 970 q 566 946 543 970 q 589 888 589 922 q 566 830 589 854 q 509 806 543 806 q 453 830 476 806 q 429 888 429 854 z "},"Ā":{"ha":901,"x_min":45,"x_max":855,"o":"m 45 0 m 633 274 l 261 274 l 159 0 l 45 0 l 399 943 l 501 943 l 855 0 l 734 0 l 633 274 m 597 369 l 447 776 l 296 369 l 597 369 m 663 1155 l 237 1155 l 237 1229 l 663 1229 l 663 1155 z "},"ā":{"ha":606,"x_min":52,"x_max":533,"o":"m 52 0 m 410 286 q 161 162 161 286 q 181 100 161 129 q 229 72 202 72 l 255 72 q 414 229 404 72 l 414 286 l 410 286 m 98 606 q 298 648 220 648 q 435 610 376 648 q 513 495 493 571 q 524 321 524 452 l 524 109 q 533 0 524 49 l 423 0 q 414 63 414 28 l 414 68 q 377 33 397 47 q 241 -14 313 -14 q 75 72 121 -14 q 52 159 52 115 q 191 331 52 278 q 402 363 274 363 l 414 363 l 414 431 q 386 533 414 506 q 275 564 353 564 q 104 521 198 564 l 98 606 m 511 848 l 85 848 l 85 922 l 511 922 l 511 848 z "},"Ă":{"ha":901,"x_min":45,"x_max":855,"o":"m 45 0 m 633 274 l 261 274 l 159 0 l 45 0 l 399 943 l 501 943 l 855 0 l 734 0 l 633 274 m 597 369 l 447 776 l 296 369 l 597 369 m 450 1074 q 249 1208 301 1074 q 232 1260 240 1231 l 292 1284 q 450 1156 336 1156 q 609 1284 565 1156 l 669 1260 q 586 1114 640 1156 q 450 1074 534 1074 z "},"ă":{"ha":606,"x_min":52,"x_max":533,"o":"m 52 0 m 410 286 q 161 162 161 286 q 181 100 161 129 q 229 72 202 72 l 255 72 q 414 229 404 72 l 414 286 l 410 286 m 98 606 q 298 648 220 648 q 435 610 376 648 q 513 495 493 571 q 524 321 524 452 l 524 109 q 533 0 524 49 l 423 0 q 414 63 414 28 l 414 68 q 377 33 397 47 q 241 -14 313 -14 q 75 72 121 -14 q 52 159 52 115 q 191 331 52 278 q 402 363 274 363 l 414 363 l 414 431 q 386 533 414 506 q 275 564 353 564 q 104 521 198 564 l 98 606 m 298 766 q 96 901 149 766 q 79 953 87 924 l 139 977 q 298 849 183 849 q 456 977 412 849 l 516 953 q 433 807 487 849 q 298 766 381 766 z "},"Ć":{"ha":851,"x_min":33,"x_max":791,"o":"m 33 0 m 502 83 q 731 166 621 83 l 791 85 q 672 16 719 33 q 467 -12 597 -12 q 237 49 337 -12 q 85 219 138 110 q 33 472 33 329 q 85 724 33 615 q 237 895 138 833 q 470 956 337 956 q 648 937 597 956 q 725 902 699 918 q 791 858 751 887 l 731 777 q 502 861 621 861 l 494 861 q 351 828 418 861 q 180 616 229 768 q 157 471 157 547 q 179 327 157 396 q 243 202 202 257 q 494 83 333 83 l 502 83 m 616 1308 l 454 1053 l 392 1083 l 489 1308 l 616 1308 z "},"ć":{"ha":602,"x_min":41,"x_max":567,"o":"m 41 0 m 372 75 q 525 129 452 75 l 567 56 q 471 2 513 16 q 345 -12 429 -12 q 123 78 205 -12 q 41 318 41 168 q 123 558 41 468 q 345 648 205 648 q 471 634 429 648 q 567 581 513 620 l 525 507 q 372 561 452 561 l 368 561 q 210 490 269 561 q 151 318 151 418 q 210 146 151 218 q 368 75 269 75 l 372 75 m 498 1000 l 336 746 l 274 776 l 371 1000 l 498 1000 z "},"Č":{"ha":851,"x_min":33,"x_max":791,"o":"m 33 0 m 502 83 q 731 166 621 83 l 791 85 q 672 16 719 33 q 467 -12 597 -12 q 237 49 337 -12 q 85 219 138 110 q 33 472 33 329 q 85 724 33 615 q 237 895 138 833 q 470 956 337 956 q 648 937 597 956 q 725 902 699 918 q 791 858 751 887 l 731 777 q 502 861 621 861 l 494 861 q 351 828 418 861 q 180 616 229 768 q 157 471 157 547 q 179 327 157 396 q 243 202 202 257 q 494 83 333 83 l 502 83 m 448 1121 l 606 1290 l 657 1257 l 511 1053 l 384 1053 l 238 1257 l 289 1290 l 448 1121 z "},"č":{"ha":602,"x_min":41,"x_max":567,"o":"m 41 0 m 372 75 q 525 129 452 75 l 567 56 q 471 2 513 16 q 345 -12 429 -12 q 123 78 205 -12 q 41 318 41 168 q 123 558 41 468 q 345 648 205 648 q 471 634 429 648 q 567 581 513 620 l 525 507 q 372 561 452 561 l 368 561 q 210 490 269 561 q 151 318 151 418 q 210 146 151 218 q 368 75 269 75 l 372 75 m 330 814 l 488 983 l 539 949 l 393 746 l 266 746 l 120 949 l 171 983 l 330 814 z "},"đ":{"ha":762,"x_min":41,"x_max":721,"o":"m 498 532 q 386 562 441 562 q 293 542 331 562 q 222 489 254 523 q 171 405 191 456 q 151 296 151 354 q 201 138 151 201 q 326 75 252 75 q 421 110 376 75 q 498 197 467 144 l 498 532 m 315 -12 q 173 31 237 -12 q 75 144 109 75 q 41 293 41 214 q 133 550 41 451 q 361 648 225 648 q 498 627 418 648 l 498 775 l 342 775 l 342 849 l 498 849 l 498 1000 l 610 1000 l 610 848 l 721 848 l 721 774 l 610 774 l 610 0 l 498 0 l 498 75 q 315 -12 421 -12 z "},"Ē":{"ha":730,"x_min":122,"x_max":661,"o":"m 122 0 m 245 437 l 245 95 l 661 95 l 661 0 l 122 0 l 122 943 l 661 943 l 661 849 l 245 849 l 245 532 l 528 532 l 528 437 l 245 437 m 598 1155 l 172 1155 l 172 1229 l 598 1229 l 598 1155 z "},"ē":{"ha":637,"x_min":41,"x_max":591,"o":"m 41 0 m 339 562 q 198 505 245 562 q 155 393 165 465 l 484 393 q 440 515 478 467 q 339 562 401 562 m 568 37 q 370 -12 495 -12 q 127 78 212 -12 q 41 318 41 168 q 168 601 41 513 q 326 648 239 648 q 529 557 460 648 q 591 353 587 479 l 575 312 l 151 312 q 211 137 152 199 q 368 75 270 75 q 539 115 443 75 l 568 37 m 549 848 l 123 848 l 123 922 l 549 922 l 549 848 z "},"Ė":{"ha":730,"x_min":122,"x_max":661,"o":"m 122 0 m 245 437 l 245 95 l 661 95 l 661 0 l 122 0 l 122 943 l 661 943 l 661 849 l 245 849 l 245 532 l 528 532 l 528 437 l 245 437 m 305 1195 q 329 1253 305 1229 q 385 1277 352 1277 q 442 1253 418 1277 q 465 1195 465 1229 q 442 1137 465 1161 q 385 1113 418 1113 q 329 1137 352 1113 q 305 1195 305 1161 z "},"ė":{"ha":637,"x_min":41,"x_max":591,"o":"m 41 0 m 339 562 q 198 505 245 562 q 155 393 165 465 l 484 393 q 440 515 478 467 q 339 562 401 562 m 568 37 q 370 -12 495 -12 q 127 78 212 -12 q 41 318 41 168 q 168 601 41 513 q 326 648 239 648 q 529 557 460 648 q 591 353 587 479 l 575 312 l 151 312 q 211 137 152 199 q 368 75 270 75 q 539 115 443 75 l 568 37 m 256 888 q 279 946 256 922 q 336 970 302 970 q 392 946 369 970 q 416 888 416 922 q 392 830 416 854 q 336 806 369 806 q 279 830 302 806 q 256 888 256 854 z "},"Ě":{"ha":730,"x_min":122,"x_max":661,"o":"m 122 0 m 245 437 l 245 95 l 661 95 l 661 0 l 122 0 l 122 943 l 661 943 l 661 849 l 245 849 l 245 532 l 528 532 l 528 437 l 245 437 m 385 1121 l 544 1290 l 595 1257 l 449 1053 l 321 1053 l 176 1257 l 227 1290 l 385 1121 z "},"ě":{"ha":637,"x_min":41,"x_max":591,"o":"m 41 0 m 339 562 q 198 505 245 562 q 155 393 165 465 l 484 393 q 440 515 478 467 q 339 562 401 562 m 568 37 q 370 -12 495 -12 q 127 78 212 -12 q 41 318 41 168 q 168 601 41 513 q 326 648 239 648 q 529 557 460 648 q 591 353 587 479 l 575 312 l 151 312 q 211 137 152 199 q 368 75 270 75 q 539 115 443 75 l 568 37 m 336 814 l 494 983 l 545 949 l 399 746 l 272 746 l 126 949 l 177 983 l 336 814 z "},"Ĝ":{"ha":973,"x_min":33,"x_max":865,"o":"m 33 0 m 33 472 q 92 724 33 615 q 262 895 151 833 q 522 956 373 956 q 709 935 650 956 q 794 900 767 914 q 865 857 822 885 l 818 767 q 525 861 673 861 q 373 828 442 861 q 189 618 241 766 q 163 480 163 548 q 288 163 163 279 q 495 83 371 83 l 503 83 q 726 134 613 83 l 726 357 l 525 357 l 525 451 l 849 452 l 848 85 q 496 -12 704 -12 q 160 121 288 -12 q 33 472 33 255 m 502 1222 l 343 1053 l 292 1086 l 438 1290 l 566 1290 l 711 1086 l 661 1053 l 502 1222 z "},"ĝ":{"ha":665,"x_min":45,"x_max":636,"o":"m 45 0 m 334 561 q 197 461 227 561 q 189 408 189 435 q 223 316 189 352 q 334 281 258 281 q 471 373 441 281 q 479 420 479 397 q 447 513 479 470 q 334 561 410 561 m 546 549 q 588 421 588 490 q 505 244 588 310 q 334 193 442 193 q 229 205 275 193 q 189 136 189 175 q 363 83 189 83 q 619 -14 564 83 q 636 -82 636 -44 q 589 -223 636 -165 q 288 -334 500 -334 q 112 -290 180 -334 q 45 -163 45 -247 q 114 -22 45 -79 q 164 12 134 -6 q 80 115 80 41 q 99 178 80 143 q 157 239 118 212 q 79 406 81 294 l 79 410 q 134 568 79 497 q 214 626 163 604 q 324 648 266 648 q 423 636 382 648 l 636 636 l 636 549 l 546 549 m 269 -4 q 180 -71 203 -41 q 154 -146 154 -106 q 178 -208 154 -185 q 308 -246 218 -246 q 494 -185 431 -246 q 527 -106 527 -153 q 489 -36 527 -58 q 410 -10 448 -14 q 321 -5 359 -5 q 269 -4 283 -5 m 350 915 l 191 746 l 140 779 l 286 983 l 414 983 l 559 779 l 509 746 l 350 915 z "},"Ĩ":{"ha":367,"x_min":-49,"x_max":401,"o":"m 0 0 m 245 943 l 245 0 l 122 0 l 122 943 l 245 943 m -1 1058 l -49 1099 q 69 1215 -1 1193 q 108 1220 86 1220 q 181 1190 130 1220 q 256 1160 233 1160 q 307 1177 279 1160 q 353 1227 334 1193 l 401 1186 q 283 1069 353 1093 q 244 1064 266 1064 q 171 1095 222 1064 q 97 1125 119 1125 q 46 1108 74 1125 q -1 1058 18 1092 z "},"ĩ":{"ha":371,"x_min":-27,"x_max":422,"o":"m 0 0 m 260 636 l 260 0 l 151 0 l 151 549 l 38 549 l 38 636 l 260 636 m 20 751 l -27 791 q 91 907 21 886 q 130 913 108 913 q 203 883 152 913 q 277 853 254 853 q 328 869 300 853 q 375 920 356 886 l 422 879 q 305 762 375 786 q 266 757 288 757 q 192 787 243 757 q 118 818 141 818 q 67 801 96 818 q 20 751 39 785 z "},"İ":{"ha":367,"x_min":103,"x_max":263,"o":"m 103 0 m 245 943 l 245 0 l 122 0 l 122 943 l 245 943 m 103 1195 q 126 1253 103 1229 q 183 1277 150 1277 q 240 1253 216 1277 q 263 1195 263 1229 q 240 1137 263 1161 q 183 1113 216 1113 q 126 1137 150 1113 q 103 1195 103 1161 z "},"ı":{"ha":371,"x_min":38,"x_max":260,"o":"m 260 636 l 260 0 l 151 0 l 151 549 l 38 549 l 38 636 l 260 636 z "},"Ŋ":{"ha":1010,"x_min":122,"x_max":888,"o":"m 764 464 q 697 765 764 668 q 511 862 630 862 q 286 758 378 862 q 243 686 243 709 l 245 0 l 122 0 l 122 943 l 245 943 l 245 827 q 433 944 308 912 q 517 956 476 956 q 589 951 557 956 q 658 933 621 947 q 727 898 696 920 q 789 839 759 876 q 841 751 820 801 q 888 470 888 642 l 888 19 q 637 -315 888 -257 q 428 -334 560 -334 l 407 -240 q 677 -191 611 -235 q 732 -134 719 -163 q 751 -83 745 -104 q 760 -28 756 -62 q 764 113 764 27 l 764 464 z "},"ŋ":{"ha":760,"x_min":111,"x_max":649,"o":"m 540 344 q 384 562 540 562 q 311 540 344 562 q 259 489 277 519 q 220 392 220 426 l 220 0 l 111 0 l 111 636 l 220 636 l 220 519 q 419 648 281 648 q 519 624 475 648 q 589 570 564 599 q 649 382 649 503 l 649 19 q 560 -263 649 -177 q 366 -334 487 -334 l 357 -247 q 473 -209 443 -236 q 519 -136 508 -176 q 540 46 540 -57 l 540 344 z "},"Ō":{"ha":979,"x_min":31,"x_max":949,"o":"m 31 0 m 150 819 q 295 919 207 883 q 481 956 383 956 q 875 759 749 956 q 949 477 949 640 q 872 191 949 312 q 652 14 791 61 q 480 -12 578 -12 q 292 25 381 -12 q 146 129 203 63 q 31 477 31 265 q 150 819 31 686 m 673 809 q 493 862 597 862 q 312 811 389 862 q 161 477 161 710 q 311 136 161 240 q 478 83 387 83 q 736 201 647 83 q 821 477 821 315 q 673 809 821 705 m 706 1155 l 280 1155 l 280 1229 l 706 1229 l 706 1155 z "},"ō":{"ha":686,"x_min":41,"x_max":645,"o":"m 41 0 m 151 318 q 167 203 151 252 q 212 127 184 154 q 273 88 240 100 q 343 75 306 75 q 474 127 419 75 q 534 318 534 185 q 474 509 534 450 q 343 561 418 561 q 212 509 267 561 q 151 318 151 450 m 41 318 q 174 604 41 524 q 343 648 247 648 q 513 604 439 648 q 582 543 553 580 q 645 318 645 460 q 513 33 645 112 q 343 -12 440 -12 q 174 33 245 -12 q 104 94 134 56 q 41 318 41 174 m 556 848 l 130 848 l 130 922 l 556 922 l 556 848 z "},"Ŏ":{"ha":979,"x_min":0,"x_max":0,"o":""},"ŏ":{"ha":686,"x_min":0,"x_max":0,"o":""},"Œ":{"ha":1242,"x_min":31,"x_max":1211,"o":"m 444 862 q 296 811 363 862 q 161 477 161 709 q 235 197 161 307 q 328 114 271 144 q 465 83 385 83 q 613 138 545 83 q 747 477 747 248 q 673 748 747 639 q 444 862 596 862 m 873 437 l 873 94 l 1211 95 l 1211 0 l 751 0 l 751 116 q 456 -12 637 -12 q 272 25 353 -12 q 138 129 190 63 q 31 477 31 265 q 79 723 31 615 q 225 893 127 830 q 456 956 322 956 q 751 835 640 956 l 751 943 l 1211 943 l 1211 849 l 873 849 l 873 532 l 1078 532 l 1078 437 l 873 437 z "},"œ":{"ha":1130,"x_min":41,"x_max":1084,"o":"m 648 393 l 977 393 q 933 514 971 467 q 823 562 895 562 q 648 393 673 562 m 151 318 q 273 88 151 134 q 343 75 306 75 q 473 127 419 75 q 534 318 534 185 q 413 548 534 502 q 343 561 380 561 q 212 509 267 561 q 151 318 151 450 m 593 111 q 343 -12 515 -12 q 104 94 187 -12 q 41 318 41 174 q 174 604 41 524 q 343 648 246 648 q 591 530 511 648 q 692 619 631 589 q 810 648 753 648 q 907 636 867 648 q 974 604 947 624 q 1022 557 1001 585 q 1054 503 1042 530 q 1072 446 1065 477 q 1084 353 1083 404 l 1068 312 l 645 312 q 644 292 645 299 q 710 131 651 187 q 861 75 769 75 q 1032 115 936 75 l 1061 37 q 863 -12 988 -12 q 593 111 680 -12 z "},"Š":{"ha":683,"x_min":65,"x_max":618,"o":"m 65 0 m 106 172 q 141 145 125 158 q 178 121 157 132 q 220 102 198 110 q 326 83 267 83 q 463 131 425 83 q 494 213 494 172 q 486 276 494 253 q 424 351 471 316 q 377 380 404 365 l 266 435 q 171 501 203 469 q 122 560 138 533 q 86 717 86 621 q 156 884 86 813 q 338 956 226 956 q 466 937 409 956 q 555 893 522 919 l 530 800 q 347 862 449 862 q 246 819 282 862 q 210 709 210 777 q 220 654 210 679 q 290 574 237 609 q 349 543 311 559 l 455 488 q 506 457 484 473 q 549 420 528 442 q 618 244 618 352 q 544 62 618 136 q 351 -12 470 -12 q 137 34 221 -12 q 65 77 92 58 l 106 172 m 342 1121 l 500 1290 l 551 1257 l 406 1053 l 278 1053 l 132 1257 l 183 1290 l 342 1121 z "},"š":{"ha":530,"x_min":45,"x_max":486,"o":"m 45 0 m 259 75 q 376 176 376 75 q 264 274 376 237 l 198 297 q 93 369 127 322 q 58 478 58 415 q 117 595 58 542 q 269 648 176 648 q 377 632 330 648 q 450 596 425 616 l 412 515 q 352 547 391 532 q 269 562 313 562 q 196 535 224 562 q 168 476 168 509 q 189 422 168 444 q 277 377 211 400 l 343 354 q 451 288 416 329 q 486 169 486 247 q 426 39 486 91 q 263 -12 366 -12 q 158 -1 208 -12 q 45 46 107 10 l 84 130 q 173 87 136 99 q 259 75 210 75 m 271 814 l 430 983 l 481 949 l 335 746 l 208 746 l 62 949 l 113 983 l 271 814 z "},"Ũ":{"ha":888,"x_min":122,"x_max":766,"o":"m 122 0 m 462 -12 q 122 297 122 -12 l 122 943 l 245 943 l 245 330 q 303 143 245 203 q 457 83 361 83 q 650 348 650 83 l 650 943 l 766 943 l 766 318 q 686 78 766 168 q 462 -12 606 -12 m 260 1046 l 212 1087 q 330 1203 260 1181 q 369 1208 347 1208 q 443 1179 391 1208 q 517 1149 494 1149 q 568 1165 540 1149 q 614 1215 595 1181 l 662 1175 q 545 1058 614 1082 q 505 1053 527 1053 q 432 1083 483 1053 q 358 1114 380 1114 q 307 1097 335 1114 q 260 1046 279 1080 z "},"ũ":{"ha":760,"x_min":111,"x_max":649,"o":"m 111 0 m 540 117 q 341 -12 479 -12 q 241 13 286 -12 q 171 66 197 37 q 129 143 146 94 q 111 254 111 192 l 111 636 l 220 636 l 220 292 q 376 75 220 75 q 450 96 416 75 q 530 203 500 129 q 540 244 540 229 l 540 636 l 649 636 l 649 0 l 540 0 l 540 117 m 192 751 l 144 791 q 262 907 193 886 q 301 913 279 913 q 375 883 323 913 q 449 853 426 853 q 500 869 472 853 q 547 920 528 886 l 594 879 q 477 762 547 786 q 437 757 459 757 q 364 787 415 757 q 290 818 313 818 q 239 801 267 818 q 192 751 211 785 z "},"Ū":{"ha":888,"x_min":122,"x_max":766,"o":"m 122 0 m 462 -12 q 122 297 122 -12 l 122 943 l 245 943 l 245 330 q 303 143 245 203 q 457 83 361 83 q 650 348 650 83 l 650 943 l 766 943 l 766 318 q 686 78 766 168 q 462 -12 606 -12 m 657 1143 l 231 1143 l 231 1217 l 657 1217 l 657 1143 z "},"ū":{"ha":760,"x_min":111,"x_max":649,"o":"m 111 0 m 540 117 q 341 -12 479 -12 q 241 13 286 -12 q 171 66 197 37 q 129 143 146 94 q 111 254 111 192 l 111 636 l 220 636 l 220 292 q 376 75 220 75 q 450 96 416 75 q 530 203 500 129 q 540 244 540 229 l 540 636 l 649 636 l 649 0 l 540 0 l 540 117 m 589 848 l 163 848 l 163 922 l 589 922 l 589 848 z "},"Ű":{"ha":888,"x_min":122,"x_max":766,"o":"m 122 0 m 462 -12 q 122 297 122 -12 l 122 943 l 245 943 l 245 330 q 303 143 245 203 q 457 83 361 83 q 650 348 650 83 l 650 943 l 766 943 l 766 318 q 686 78 766 168 q 462 -12 606 -12 m 459 1296 l 297 1042 l 235 1072 l 332 1296 l 459 1296 m 703 1296 l 541 1042 l 479 1072 l 576 1296 l 703 1296 z "},"ű":{"ha":760,"x_min":111,"x_max":649,"o":"m 111 0 m 540 117 q 341 -12 479 -12 q 241 13 286 -12 q 171 66 197 37 q 129 143 146 94 q 111 254 111 192 l 111 636 l 220 636 l 220 292 q 376 75 220 75 q 450 96 416 75 q 530 203 500 129 q 540 244 540 229 l 540 636 l 649 636 l 649 0 l 540 0 l 540 117 m 391 1000 l 229 746 l 167 776 l 264 1000 l 391 1000 m 635 1000 l 473 746 l 411 776 l 508 1000 l 635 1000 z "},"Ŵ":{"ha":1375,"x_min":45,"x_max":1329,"o":"m 45 0 m 1215 943 l 1329 943 l 1017 0 l 915 0 l 687 688 l 459 0 l 357 0 l 45 943 l 166 943 l 412 168 l 658 943 l 724 943 l 969 168 l 1215 943 m 687 1222 l 528 1053 l 477 1086 l 623 1290 l 751 1290 l 897 1086 l 846 1053 l 687 1222 z "},"ŵ":{"ha":1025,"x_min":14,"x_max":1011,"o":"m 14 0 m 901 636 l 1011 636 l 762 0 l 692 0 l 513 455 l 335 0 l 264 0 l 14 636 l 132 636 l 303 180 l 474 636 l 559 636 l 730 180 l 901 636 m 513 915 l 354 746 l 303 779 l 449 983 l 576 983 l 722 779 l 671 746 l 513 915 z "},"ſ":{"ha":458,"x_min":38,"x_max":574,"o":"m 260 0 l 151 0 l 151 549 l 38 549 l 38 636 l 151 636 l 151 692 q 389 993 151 993 q 511 970 463 993 q 547 948 527 962 q 574 932 568 935 l 544 846 q 474 888 516 870 q 386 906 433 906 q 299 858 339 906 q 260 751 260 810 l 260 0 z "},"Ɓ":{"ha":757,"x_min":-140,"x_max":724,"o":"m 673 117 q 647 83 673 117 q 538 19 622 50 q 334 -12 454 -12 q 122 9 214 -12 l 122 815 q -15 690 -15 763 q 0 608 -15 646 l -118 590 q -140 699 -140 632 q -94 818 -140 765 q 27 899 -47 870 q 325 956 173 956 q 565 897 476 956 q 653 742 653 838 q 606 588 653 646 q 486 510 559 530 q 709 365 664 486 q 724 280 724 327 q 673 117 724 184 m 245 849 l 245 539 l 290 539 q 463 582 403 539 q 523 705 523 625 q 425 844 523 805 q 332 861 379 861 q 245 849 285 861 m 245 95 q 338 83 281 83 q 532 130 466 83 q 599 264 599 177 q 286 444 599 444 l 245 444 l 245 95 z "},"Ɔ":{"ha":851,"x_min":41,"x_max":818,"o":"m 349 861 q 120 777 231 861 l 60 858 q 179 928 132 910 q 384 956 254 956 q 614 895 514 956 q 766 724 713 833 q 818 471 818 614 q 698 121 818 254 q 372 -12 578 -12 q 41 187 134 -12 l 119 231 q 210 123 149 164 q 368 83 272 83 q 607 186 527 83 q 688 472 688 290 q 601 741 688 626 q 497 828 560 795 q 357 861 433 861 l 349 861 z "},"Ɗ":{"ha":932,"x_min":-140,"x_max":902,"o":"m 150 936 q 180 941 150 936 q 262 951 210 946 q 382 956 315 956 q 527 935 450 956 q 672 874 604 915 q 791 775 740 833 q 872 639 842 718 q 902 457 902 559 q 860 262 902 355 q 746 111 817 170 q 396 -12 599 -12 q 122 9 249 -12 l 122 821 q -15 690 -15 774 q 0 608 -15 646 l -118 590 q -140 689 -140 632 q -117 788 -140 747 q -52 858 -93 830 q 40 905 -10 885 q 150 936 90 925 m 245 849 l 244 95 q 379 83 307 83 q 521 108 451 83 q 648 179 591 133 q 740 301 705 226 q 774 459 774 376 q 750 607 774 542 q 684 718 725 672 q 591 797 644 764 q 370 861 489 861 q 245 849 298 861 z "},"Ǝ":{"ha":730,"x_min":69,"x_max":608,"o":"m 486 507 l 486 849 l 69 848 l 69 943 l 608 943 l 608 0 l 69 0 l 69 94 l 486 94 l 486 412 l 202 412 l 202 507 l 486 507 z "},"Ə":{"ha":904,"x_min":27,"x_max":871,"o":"m 438 -12 q 146 94 259 -12 q 27 425 27 204 l 87 488 l 741 488 q 619 783 734 673 q 417 861 538 861 q 276 836 338 861 q 151 768 213 810 l 91 848 q 235 926 159 897 q 419 956 311 956 q 616 917 528 956 q 759 811 704 878 q 871 460 871 674 q 758 117 871 246 q 438 -12 645 -12 m 737 393 l 151 393 q 278 132 151 217 q 424 83 351 83 q 545 98 497 83 q 625 140 592 113 q 682 208 659 168 q 737 393 726 280 z "},"Ɛ":{"ha":679,"x_min":33,"x_max":618,"o":"m 382 83 q 478 104 427 83 q 566 157 530 125 l 618 75 q 372 -12 512 -12 q 231 12 296 -12 q 123 78 167 37 q 33 289 33 165 q 201 518 33 442 q 103 588 149 537 q 57 700 57 639 q 77 807 57 762 q 128 879 97 852 q 202 924 159 906 q 360 956 278 956 q 507 931 441 956 q 600 884 572 907 l 547 806 q 466 845 513 829 q 375 861 418 861 q 295 849 331 861 q 239 821 259 838 q 208 781 220 804 q 187 703 187 744 q 208 630 187 661 q 260 582 229 599 q 378 549 321 549 l 475 549 l 475 454 l 368 454 q 216 406 269 454 q 163 277 163 357 q 224 140 163 198 q 382 83 284 83 z "},"Ƒ":{"ha":677,"x_min":-108,"x_max":661,"o":"m 122 943 l 661 943 l 661 849 l 245 849 l 245 531 l 528 532 l 528 437 l 245 437 l 245 19 q 189 -224 245 -143 q 116 -294 151 -277 q 61 -318 81 -312 q 12 -328 41 -325 q -77 -334 -26 -334 l -108 -240 q 66 -191 23 -235 q 119 -28 112 -144 q 122 113 122 27 l 122 943 z "},"ƒ":{"ha":458,"x_min":-35,"x_max":574,"o":"m 260 20 q 170 -261 260 -176 q -26 -331 95 -331 l -35 -244 q 80 -206 50 -233 q 126 -133 115 -174 q 148 49 148 -52 l 151 549 l 38 549 l 38 636 l 151 636 l 151 692 q 389 993 151 993 q 511 970 463 993 q 547 948 527 962 q 574 932 568 935 l 544 846 q 474 888 516 870 q 386 906 433 906 q 299 857 339 906 q 260 751 260 808 l 260 636 l 415 636 l 415 549 l 260 549 l 260 20 z "},"Ɣ":{"ha":842,"x_min":40,"x_max":802,"o":"m 477 115 q 534 -11 509 43 q 589 -199 589 -130 q 540 -300 589 -267 q 420 -334 491 -334 q 322 -312 358 -334 q 256 -197 256 -272 q 280 -95 256 -159 q 366 110 303 -31 l 40 943 l 157 943 l 422 256 l 692 956 l 802 956 l 477 115 m 421 -34 q 384 -176 384 -140 q 395 -225 384 -212 q 420 -239 406 -239 q 461 -177 461 -239 q 421 -34 461 -140 z "},"Ɩ":{"ha":472,"x_min":122,"x_max":453,"o":"m 453 9 q 330 -12 393 -12 q 236 -2 266 -12 q 179 32 206 8 q 122 212 122 83 l 122 944 l 245 944 l 245 227 q 336 83 245 83 q 438 95 382 83 l 453 9 z "},"Ɨ":{"ha":450,"x_min":41,"x_max":408,"o":"m 163 450 l 41 450 l 41 545 l 163 545 l 163 943 l 286 943 l 286 545 l 408 545 l 408 450 l 286 450 l 286 0 l 163 0 l 163 450 z "},"Ƙ":{"ha":787,"x_min":122,"x_max":903,"o":"m 748 1 l 605 1 l 245 460 l 245 0 l 122 0 l 122 943 l 245 943 l 245 470 l 432 726 q 548 873 513 836 q 606 926 584 911 q 691 956 652 956 q 845 901 793 956 q 903 759 892 853 l 794 743 q 765 829 787 798 q 700 861 743 861 q 599 781 661 861 q 576 749 592 771 q 557 723 559 726 l 376 475 l 748 1 z "},"ƙ":{"ha":635,"x_min":111,"x_max":620,"o":"m 220 0 l 111 0 l 111 692 q 349 993 111 993 q 472 970 424 993 q 508 948 488 962 q 534 932 528 935 l 505 846 q 435 888 477 870 q 347 906 393 906 q 260 858 300 906 q 220 751 220 810 l 220 423 l 437 636 l 572 636 l 311 381 l 620 0 l 484 0 l 220 325 l 220 0 z "},"Ɲ":{"ha":939,"x_min":-108,"x_max":817,"o":"m 122 943 l 245 943 l 694 236 l 694 943 l 817 943 l 817 0 l 694 0 l 245 707 l 245 19 q 189 -224 245 -143 q 116 -294 151 -277 q 61 -318 81 -312 q 12 -328 41 -325 q -77 -334 -26 -334 l -108 -240 q 66 -191 23 -235 q 119 -28 112 -144 q 122 113 122 27 l 122 943 z "},"Ɵ":{"ha":979,"x_min":31,"x_max":949,"o":"m 149 819 q 295 919 207 883 q 482 956 383 956 q 655 931 581 956 q 783 863 729 907 q 875 758 837 819 q 949 477 949 640 q 780 84 949 227 q 493 -12 665 -12 q 292 25 381 -12 q 146 129 203 63 q 31 477 31 265 q 149 819 31 686 m 820 450 l 161 450 q 251 189 168 290 q 493 83 338 83 q 627 113 566 83 q 728 193 688 142 q 820 450 813 298 m 817 545 q 719 770 800 682 q 493 862 634 862 q 328 821 399 862 q 165 545 187 740 l 817 545 z "},"Ʃ":{"ha":705,"x_min":37,"x_max":636,"o":"m 37 1 l 395 472 l 37 944 l 636 944 l 636 850 l 237 850 l 522 472 l 237 95 l 636 96 l 636 1 l 37 1 z "},"Ʋ":{"ha":899,"x_min":122,"x_max":868,"o":"m 462 -12 q 122 297 122 -12 l 122 943 l 245 943 l 245 330 q 380 95 245 138 q 462 83 416 83 q 555 102 508 83 q 644 158 602 121 q 713 256 686 194 q 740 392 740 318 q 724 530 740 467 q 675 651 708 593 q 497 871 614 758 l 593 956 q 757 763 709 833 q 825 641 804 692 q 868 402 868 530 q 815 181 868 275 q 669 38 762 88 q 462 -12 577 -12 z "},"Ƴ":{"ha":886,"x_min":40,"x_max":1002,"o":"m 668 724 l 482 419 l 482 0 l 359 0 l 359 420 l 40 943 l 161 943 l 425 511 l 554 724 q 733 937 663 901 q 818 956 770 956 q 1002 759 979 956 l 893 743 q 850 852 881 836 q 818 861 836 861 q 786 855 800 861 q 761 842 772 849 q 738 821 751 836 q 717 798 724 806 q 697 771 710 790 q 682 747 685 751 q 668 724 680 743 z "},"ƴ":{"ha":766,"x_min":-1,"x_max":882,"o":"m 39 -218 q 99 -249 75 -249 q 139 -240 123 -249 q 172 -213 155 -231 q 202 -173 188 -194 q 233 -121 216 -153 q 294 7 252 -83 l 16 636 l 134 636 l 353 140 l 480 431 q 621 629 554 597 q 718 648 659 648 q 861 545 817 648 q 882 456 878 507 l 773 435 q 749 512 771 471 q 696 553 727 553 q 654 535 671 553 q 627 501 637 516 q 608 469 616 486 q 578 406 591 434 l 401 12 q 205 -307 283 -252 q 106 -336 165 -336 q -1 -285 47 -336 l 39 -218 z "},"Ƶ":{"ha":854,"x_min":34,"x_max":757,"o":"m 444 450 l 217 94 l 757 94 l 757 -1 l 34 0 l 320 450 l 146 450 l 146 545 l 380 545 l 574 849 l 59 849 l 59 943 l 757 943 l 504 545 l 684 545 l 684 450 l 444 450 z "},"ƶ":{"ha":659,"x_min":45,"x_max":614,"o":"m 75 636 l 603 636 l 428 378 l 585 378 l 585 304 l 378 304 l 231 87 l 614 87 l 614 0 l 45 0 l 252 304 l 87 304 l 87 378 l 302 378 l 418 549 l 75 549 l 75 636 z "},"Ǎ":{"ha":901,"x_min":45,"x_max":855,"o":"m 45 0 m 633 274 l 261 274 l 159 0 l 45 0 l 399 943 l 501 943 l 855 0 l 734 0 l 633 274 m 597 369 l 447 776 l 296 369 l 597 369 m 450 1121 l 609 1290 l 660 1257 l 514 1053 l 387 1053 l 241 1257 l 292 1290 l 450 1121 z "},"ǎ":{"ha":606,"x_min":52,"x_max":533,"o":"m 52 0 m 410 286 q 161 162 161 286 q 181 100 161 129 q 229 72 202 72 l 255 72 q 414 229 404 72 l 414 286 l 410 286 m 98 606 q 298 648 220 648 q 435 610 376 648 q 513 495 493 571 q 524 321 524 452 l 524 109 q 533 0 524 49 l 423 0 q 414 63 414 28 l 414 68 q 377 33 397 47 q 241 -14 313 -14 q 75 72 121 -14 q 52 159 52 115 q 191 331 52 278 q 402 363 274 363 l 414 363 l 414 431 q 386 533 414 506 q 275 564 353 564 q 104 521 198 564 l 98 606 m 298 814 l 456 983 l 507 949 l 361 746 l 234 746 l 88 949 l 139 983 l 298 814 z "},"Ǐ":{"ha":367,"x_min":-26,"x_max":393,"o":"m 0 0 m 245 943 l 245 0 l 122 0 l 122 943 l 245 943 m 183 1121 l 342 1290 l 393 1257 l 247 1053 l 119 1053 l -26 1257 l 24 1290 l 183 1121 z "},"ǐ":{"ha":371,"x_min":-5,"x_max":414,"o":"m 0 0 m 260 636 l 260 0 l 151 0 l 151 549 l 38 549 l 38 636 l 260 636 m 205 814 l 363 983 l 414 949 l 269 746 l 141 746 l -5 949 l 46 983 l 205 814 z "},"Ǒ":{"ha":979,"x_min":31,"x_max":949,"o":"m 31 0 m 150 819 q 295 919 207 883 q 481 956 383 956 q 875 759 749 956 q 949 477 949 640 q 872 191 949 312 q 652 14 791 61 q 480 -12 578 -12 q 292 25 381 -12 q 146 129 203 63 q 31 477 31 265 q 150 819 31 686 m 673 809 q 493 862 597 862 q 312 811 389 862 q 161 477 161 710 q 311 136 161 240 q 478 83 387 83 q 736 201 647 83 q 821 477 821 315 q 673 809 821 705 m 493 1121 l 652 1290 l 703 1257 l 557 1053 l 429 1053 l 283 1257 l 334 1290 l 493 1121 z "},"ǒ":{"ha":686,"x_min":41,"x_max":645,"o":"m 41 0 m 151 318 q 167 203 151 252 q 212 127 184 154 q 273 88 240 100 q 343 75 306 75 q 474 127 419 75 q 534 318 534 185 q 474 509 534 450 q 343 561 418 561 q 212 509 267 561 q 151 318 151 450 m 41 318 q 174 604 41 524 q 343 648 247 648 q 513 604 439 648 q 582 543 553 580 q 645 318 645 460 q 513 33 645 112 q 343 -12 440 -12 q 174 33 245 -12 q 104 94 134 56 q 41 318 41 174 m 343 814 l 502 983 l 553 949 l 407 746 l 279 746 l 134 949 l 184 983 l 343 814 z "},"Ǔ":{"ha":888,"x_min":122,"x_max":766,"o":"m 122 0 m 462 -12 q 122 297 122 -12 l 122 943 l 245 943 l 245 330 q 303 143 245 203 q 457 83 361 83 q 650 348 650 83 l 650 943 l 766 943 l 766 318 q 686 78 766 168 q 462 -12 606 -12 m 444 1109 l 603 1278 l 654 1245 l 508 1042 l 380 1042 l 235 1245 l 286 1278 l 444 1109 z "},"ǔ":{"ha":760,"x_min":111,"x_max":649,"o":"m 111 0 m 540 117 q 341 -12 479 -12 q 241 13 286 -12 q 171 66 197 37 q 129 143 146 94 q 111 254 111 192 l 111 636 l 220 636 l 220 292 q 376 75 220 75 q 450 96 416 75 q 530 203 500 129 q 540 244 540 229 l 540 636 l 649 636 l 649 0 l 540 0 l 540 117 m 376 814 l 535 983 l 586 949 l 440 746 l 313 746 l 167 949 l 218 983 l 376 814 z "},"ǝ":{"ha":637,"x_min":41,"x_max":591,"o":"m 294 75 q 435 132 388 75 q 477 243 467 171 l 149 243 q 193 122 155 169 q 294 75 231 75 m 64 599 q 262 648 138 648 q 506 558 420 648 q 591 318 591 468 q 465 35 591 122 q 307 -12 395 -12 q 104 79 173 -12 q 41 283 45 157 l 58 324 l 482 324 q 422 499 481 437 q 264 561 363 561 q 94 521 190 561 l 64 599 z "},"Ȩ":{"ha":730,"x_min":122,"x_max":661,"o":"m 334 0 l 122 0 l 122 943 l 661 943 l 661 849 l 245 849 l 245 532 l 528 532 l 528 437 l 245 437 l 245 95 l 661 95 l 661 0 l 404 0 q 387 -72 387 -37 q 446 -115 421 -81 q 470 -200 470 -150 q 441 -281 470 -251 q 354 -335 412 -311 l 300 -284 q 365 -247 342 -267 q 388 -193 388 -227 q 365 -138 388 -159 q 303 -117 342 -117 q 334 0 303 -50 z "},"ȩ":{"ha":637,"x_min":41,"x_max":591,"o":"m 339 562 q 198 505 245 562 q 155 393 165 465 l 484 393 q 440 514 478 467 q 339 562 401 562 m 568 37 q 370 -12 495 -12 q 349 -12 359 -12 q 338 -72 338 -42 q 396 -115 372 -81 q 420 -200 420 -150 q 392 -281 420 -251 q 304 -335 363 -311 l 251 -284 q 316 -247 293 -267 q 338 -193 338 -227 q 316 -138 338 -159 q 254 -117 293 -117 q 282 -4 254 -52 q 127 78 186 15 q 41 318 41 168 q 168 601 41 514 q 326 648 238 648 q 529 557 460 648 q 591 353 587 479 l 575 312 l 151 312 q 211 137 152 199 q 368 75 270 75 q 539 115 443 75 l 568 37 z "},"Ȫ":{"ha":979,"x_min":0,"x_max":0,"o":""},"ȯ":{"ha":686,"x_min":0,"x_max":0,"o":""},"ȷ":{"ha":371,"x_min":7,"x_max":260,"o":"m 260 636 l 260 75 q 233 -138 260 -64 q 68 -334 191 -252 l 7 -285 q 109 -156 81 -213 q 151 75 151 -70 l 151 549 l 38 549 l 38 636 l 260 636 z "},"Ʉ":{"ha":971,"x_min":41,"x_max":930,"o":"m 286 330 q 420 95 286 138 q 503 83 458 83 q 643 148 593 83 q 692 348 692 213 l 692 450 l 286 450 l 286 330 m 163 450 l 41 450 l 41 545 l 163 545 l 163 943 l 286 943 l 286 545 l 692 545 l 692 943 l 808 943 l 808 545 l 930 545 l 930 450 l 808 450 l 808 318 q 728 78 808 168 q 503 -12 648 -12 q 163 297 163 -12 l 163 450 z "},"Ʌ":{"ha":901,"x_min":45,"x_max":855,"o":"m 447 775 l 159 0 l 45 0 l 399 943 l 501 943 l 855 0 l 734 0 l 447 775 z "},"ɑ":{"ha":689,"x_min":41,"x_max":630,"o":"m 498 106 q 453 43 461 50 q 432 24 444 36 q 408 8 419 13 q 381 -2 397 4 q 305 -12 355 -12 q 208 6 255 -12 q 123 62 161 25 q 41 309 41 143 q 186 593 41 494 q 362 648 268 648 q 608 582 500 648 l 608 142 q 612 59 608 85 q 630 0 617 33 l 521 0 q 503 38 508 18 q 498 106 498 58 m 315 75 q 498 197 426 75 l 498 536 q 394 561 459 561 q 282 541 328 561 q 208 485 237 520 q 151 304 151 414 q 256 87 151 132 q 315 75 283 75 z "},"ɓ":{"ha":718,"x_min":111,"x_max":677,"o":"m 403 562 q 220 439 292 561 l 220 100 q 325 75 260 75 q 436 96 391 75 q 511 151 482 116 q 568 332 568 222 q 462 549 568 504 q 403 562 434 562 m 220 562 q 310 630 264 611 q 410 648 355 648 q 511 630 464 648 q 595 574 557 611 q 677 327 677 493 q 533 43 677 142 q 357 -12 451 -12 q 111 54 219 -12 l 111 692 q 349 993 111 993 q 472 970 424 993 q 508 948 488 962 q 534 932 528 935 l 505 846 q 435 888 477 870 q 347 906 393 906 q 260 857 300 906 q 220 751 220 808 l 220 562 z "},"ɔ":{"ha":625,"x_min":41,"x_max":583,"o":"m 252 561 q 100 507 173 561 l 58 581 q 266 648 157 648 q 497 556 412 648 q 583 316 583 465 q 502 78 583 168 q 280 -12 420 -12 q 41 149 105 -12 l 117 191 q 279 75 163 75 q 425 145 376 75 q 474 316 474 214 q 415 490 474 418 q 256 561 355 561 l 252 561 z "},"ɖ":{"ha":721,"x_min":41,"x_max":792,"o":"m 610 46 q 650 -175 610 -114 q 705 -227 676 -215 q 792 -247 741 -240 l 783 -334 q 641 -303 699 -334 q 588 -264 616 -290 q 541 -201 560 -237 q 498 18 498 -117 l 498 75 q 315 -12 421 -12 q 173 31 237 -12 q 75 144 109 75 q 41 293 41 214 q 133 550 41 451 q 361 648 225 648 q 498 627 418 648 l 498 1000 l 610 1000 l 610 46 m 498 532 q 386 562 441 562 q 293 542 331 562 q 222 489 254 523 q 171 405 191 456 q 151 296 151 354 q 201 138 151 201 q 326 75 252 75 q 421 110 376 75 q 498 197 467 144 l 498 532 z "},"ɗ":{"ha":721,"x_min":41,"x_max":845,"o":"m 498 627 l 498 689 q 587 959 498 891 q 682 993 631 993 q 769 977 733 993 q 845 915 822 954 l 788 850 q 694 906 747 906 q 634 860 658 906 q 610 724 610 813 l 610 0 l 498 0 l 498 75 q 315 -12 421 -12 q 173 31 237 -12 q 75 144 109 75 q 41 293 41 214 q 133 550 41 451 q 361 648 225 648 q 498 627 418 648 m 498 532 q 386 562 441 562 q 293 542 331 562 q 222 489 254 523 q 171 405 191 456 q 151 296 151 354 q 201 138 151 201 q 326 75 252 75 q 421 110 376 75 q 498 197 467 144 l 498 532 z "},"ə":{"ha":637,"x_min":41,"x_max":591,"o":"m 41 0 m 294 75 q 435 132 388 75 q 477 243 467 171 l 149 243 q 193 122 155 169 q 294 75 231 75 m 64 599 q 262 648 138 648 q 506 558 420 648 q 591 318 591 468 q 465 35 591 122 q 307 -12 395 -12 q 104 79 173 -12 q 41 283 45 157 l 58 324 l 482 324 q 422 499 481 437 q 264 561 363 561 q 94 521 190 561 l 64 599 z "},"ɛ":{"ha":557,"x_min":41,"x_max":517,"o":"m 461 521 q 316 562 391 562 q 205 528 246 562 q 180 470 180 507 q 222 408 180 432 q 340 383 263 383 l 399 383 l 388 302 l 320 302 q 194 273 238 302 q 151 199 151 245 q 176 125 151 153 q 298 75 221 75 q 380 88 342 75 q 434 113 418 101 q 473 144 451 125 l 517 75 q 429 13 486 39 q 301 -12 372 -12 q 172 10 229 -12 q 78 78 115 32 q 41 185 41 123 q 73 286 41 246 q 151 342 104 325 q 68 476 68 378 q 103 567 68 527 q 305 648 174 648 q 428 633 376 648 q 503 600 480 618 l 461 521 z "},"ɡ":{"ha":719,"x_min":41,"x_max":608,"o":"m 498 75 q 409 6 454 25 q 309 -12 363 -12 q 208 6 255 -12 q 123 62 161 25 q 41 309 41 143 q 186 593 41 494 q 362 648 268 648 q 608 582 500 648 l 608 19 q 541 -251 608 -168 q 320 -334 474 -334 q 184 -314 246 -334 q 81 -267 121 -294 l 119 -191 q 211 -230 152 -214 q 330 -247 270 -247 q 428 -220 390 -247 q 482 -132 466 -194 q 498 46 498 -70 l 498 75 m 315 75 q 498 197 426 75 l 498 536 q 394 561 459 561 q 282 541 328 561 q 208 485 237 520 q 151 304 151 414 q 256 87 151 132 q 315 75 283 75 z "},"ɣ":{"ha":705,"x_min":57,"x_max":648,"o":"m 350 -28 q 313 -172 313 -119 q 322 -236 313 -224 q 352 -249 331 -249 q 381 -237 372 -249 q 391 -187 391 -224 q 350 -28 391 -123 m 352 -334 q 322 -334 352 -334 q 248 -297 291 -334 q 204 -189 204 -260 q 297 92 204 -118 l 57 636 l 174 636 l 355 225 l 538 636 l 648 636 l 409 104 q 478 -75 456 -5 q 500 -201 500 -144 q 457 -295 500 -257 q 352 -334 414 -334 z "},"ɨ":{"ha":410,"x_min":38,"x_max":369,"o":"m 38 0 m 151 378 l 151 549 l 38 549 l 38 636 l 260 636 l 260 378 l 369 378 l 369 304 l 260 304 l 260 0 l 151 0 l 151 304 l 41 304 l 41 378 l 151 378 m 125 888 q 148 946 125 922 q 205 970 172 970 q 261 946 238 970 q 285 888 285 922 q 261 830 285 854 q 205 806 238 806 q 148 830 172 806 q 125 888 125 854 z "},"ɩ":{"ha":402,"x_min":111,"x_max":365,"o":"m 252 -12 q 111 167 111 -12 l 111 636 l 220 636 l 220 174 q 240 99 220 121 q 279 76 261 76 q 356 81 296 76 l 365 2 q 252 -12 297 -12 z "},"ɲ":{"ha":760,"x_min":-74,"x_max":649,"o":"m 540 344 q 384 562 540 562 q 311 540 344 562 q 259 489 277 519 q 220 392 220 426 l 220 18 q 130 -264 220 -179 q -65 -334 56 -334 l -74 -247 q 42 -209 12 -236 q 90 -136 79 -176 q 111 46 111 -54 l 111 636 l 220 636 l 220 519 q 419 648 281 648 q 519 624 475 648 q 589 570 564 599 q 649 382 649 503 l 649 0 l 540 0 l 540 344 z "},"ʃ":{"ha":388,"x_min":-75,"x_max":463,"o":"m 89 467 q 57 581 74 508 q 40 692 40 653 q 278 993 40 993 q 400 970 353 993 q 437 948 416 962 q 463 932 457 935 l 433 846 q 364 888 406 870 q 276 906 322 906 q 189 855 229 906 q 149 717 149 804 q 165 615 149 684 q 194 511 180 547 l 290 201 q 348 -31 348 39 q 110 -332 348 -332 q -12 -309 35 -332 q -49 -288 -28 -301 q -75 -271 -69 -275 l -45 -185 q 24 -228 -18 -210 q 109 -245 66 -245 q 203 -191 168 -245 q 239 -56 239 -136 q 220 43 239 -24 q 184 156 201 111 l 89 467 z "},"ʉ":{"ha":839,"x_min":41,"x_max":798,"o":"m 260 292 q 416 75 260 75 q 489 96 456 75 q 541 147 522 117 q 579 244 579 210 l 579 304 l 260 304 l 260 292 m 688 378 l 798 378 l 798 304 l 688 304 l 688 0 l 579 0 l 579 117 q 380 -12 518 -12 q 280 13 325 -12 q 210 66 236 37 q 151 254 151 133 l 151 304 l 41 304 l 41 378 l 151 378 l 151 636 l 260 636 l 260 378 l 579 378 l 579 636 l 688 636 l 688 378 z "},"ʋ":{"ha":760,"x_min":111,"x_max":645,"o":"m 350 75 q 534 332 534 75 q 464 527 534 429 q 426 576 450 545 l 515 648 q 645 332 645 478 q 574 90 645 184 q 344 -12 498 -12 q 175 58 239 -12 q 111 248 111 127 l 111 636 l 220 636 l 220 248 q 254 127 220 179 q 350 75 288 75 z "},"ʌ":{"ha":667,"x_min":14,"x_max":653,"o":"m 330 456 l 124 0 l 14 0 l 297 636 l 369 636 l 653 0 l 536 0 l 330 456 z "},"ʻ":{"ha":305,"x_min":51,"x_max":238,"o":"m 150 774 q 183 746 150 762 q 206 724 195 741 q 216 680 216 707 q 195 628 216 652 q 141 604 174 604 q 90 616 109 604 q 64 647 71 628 q 51 721 51 680 q 182 956 51 829 l 238 907 q 150 774 150 823 z "},"ʼ":{"ha":305,"x_min":51,"x_max":238,"o":"m 139 785 q 106 814 139 798 q 83 836 94 819 q 73 880 73 853 q 94 931 73 907 q 148 956 115 956 q 199 944 180 956 q 225 913 218 932 q 238 839 238 880 q 106 604 238 731 l 51 653 q 139 785 139 737 z "},"ʽ":{"ha":305,"x_min":51,"x_max":238,"o":"m 150 785 q 238 653 150 737 l 182 604 q 77 739 104 680 q 51 850 51 798 q 136 956 51 956 q 195 931 174 956 q 216 880 216 907 q 206 836 216 853 q 183 814 195 819 q 150 785 150 798 z "},"˞":{"ha":391,"x_min":-28,"x_max":331,"o":"m -28 582 q 113 631 28 631 q 134 569 113 592 q 189 547 155 547 q 243 569 223 547 q 280 634 262 592 l 331 581 q 277 493 307 522 q 196 465 247 465 q 111 489 146 465 q 68 547 77 513 q -28 519 20 547 l -28 582 z "},"̀":{"ha":0,"x_min":-169,"x_max":56,"o":"m -169 1000 l -41 1000 l 56 776 l -7 746 l -169 1000 z "},"́":{"ha":0,"x_min":-56,"x_max":169,"o":"m 169 1000 l 7 746 l -56 776 l 41 1000 l 169 1000 z "},"̂":{"ha":0,"x_min":-210,"x_max":210,"o":"m 0 915 l -159 746 l -210 779 l -64 983 l 64 983 l 210 779 l 159 746 l 0 915 z "},"̃":{"ha":0,"x_min":-232,"x_max":218,"o":"m -184 751 l -232 791 q -114 907 -184 886 q -75 913 -97 913 q -2 883 -53 913 q 73 853 50 853 q 123 869 96 853 q 170 920 151 886 l 218 879 q 100 762 170 786 q 61 757 83 757 q -13 787 39 757 q -86 818 -64 818 q -137 801 -109 818 q -184 751 -165 785 z "},"̄":{"ha":0,"x_min":-213,"x_max":213,"o":"m 213 848 l -213 848 l -213 922 l 213 922 l 213 848 z "},"̆":{"ha":0,"x_min":-218,"x_max":218,"o":"m 0 766 q -201 901 -149 766 q -218 953 -210 924 l -159 977 q 0 849 -115 849 q 159 977 115 849 l 218 953 q 136 807 189 849 q 0 766 83 766 z "},"̇":{"ha":0,"x_min":-80,"x_max":80,"o":"m -80 888 q -57 946 -80 922 q 0 970 -33 970 q 57 946 33 970 q 80 888 80 922 q 57 830 80 854 q 0 806 33 806 q -57 830 -33 806 q -80 888 -80 854 z "},"̈":{"ha":0,"x_min":-240,"x_max":240,"o":"m -240 888 q -217 946 -240 922 q -160 970 -193 970 q -103 946 -127 970 q -80 888 -80 922 q -103 830 -80 854 q -160 806 -127 806 q -217 830 -193 806 q -240 888 -240 854 m 80 888 q 103 946 80 922 q 160 970 127 970 q 217 946 193 970 q 240 888 240 922 q 217 830 240 854 q 160 806 193 806 q 103 830 127 806 q 80 888 80 854 z "},"̉":{"ha":0,"x_min":-102,"x_max":112,"o":"m -16 692 q -38 745 -38 720 q -30 784 -38 770 q -12 807 -22 798 q 10 823 -1 816 q 37 860 37 842 q 26 891 37 879 q -1 903 16 903 q -55 878 -37 903 l -102 916 q -60 957 -88 937 q 12 977 -32 977 q 83 945 55 977 q 112 867 112 913 q 83 806 112 828 q 58 789 71 797 q 28 746 28 770 q 34 715 28 730 q 41 692 39 699 l -16 692 z "},"̊":{"ha":0,"x_min":-122,"x_max":122,"o":"m 0 892 q -45 873 -26 892 q -64 828 -64 854 q -45 782 -64 801 q 0 764 -26 764 q 45 782 26 764 q 64 828 64 801 q 45 873 64 854 q 0 892 26 892 m -122 827 q -86 913 -122 878 q 0 949 -50 949 q 86 913 50 949 q 122 827 122 878 q 86 741 122 777 q 0 705 50 705 q -86 741 -50 705 q -122 827 -122 777 z "},"̋":{"ha":0,"x_min":-210,"x_max":259,"o":"m 15 1000 l -147 746 l -210 776 l -113 1000 l 15 1000 m 259 1000 l 97 746 l 35 776 l 132 1000 l 259 1000 z "},"̌":{"ha":0,"x_min":-210,"x_max":210,"o":"m 0 814 l 159 983 l 210 949 l 64 746 l -64 746 l -210 949 l -159 983 l 0 814 z "},"̍":{"ha":0,"x_min":-37,"x_max":37,"o":"m -37 747 l -37 991 l 37 991 l 37 747 l -37 747 z "},"̎":{"ha":0,"x_min":-146,"x_max":146,"o":"m 73 747 l 73 991 l 146 991 l 146 747 l 73 747 m -146 747 l -146 991 l -73 991 l -73 747 l -146 747 z "},"̐":{"ha":0,"x_min":-61,"x_max":281,"o":"m 182 785 q 149 814 182 798 q 126 836 137 819 q 116 880 116 853 q 137 931 116 907 q 191 956 159 956 q 242 944 224 956 q 269 913 261 932 q 281 834 281 880 q 255 739 281 789 q -15 515 178 595 l -61 576 q 182 785 130 650 z "},"̑":{"ha":0,"x_min":-218,"x_max":218,"o":"m 0 977 q 201 842 149 977 q 218 790 210 819 l 159 766 q 0 894 115 894 q -159 766 -115 894 l -218 790 q -136 936 -189 894 q 0 977 -83 977 z "},"̒":{"ha":0,"x_min":-80,"x_max":85,"o":"m 23 850 q 45 834 23 844 q 85 776 85 814 q 63 720 85 738 q 4 701 40 701 q -56 731 -31 701 q -80 802 -80 761 q -58 883 -80 843 q 26 970 -36 923 l 81 921 q 23 850 23 875 z "},"̓":{"ha":0,"x_min":-80,"x_max":85,"o":"m 0 701 m -18 821 q -39 837 -18 827 q -80 895 -80 857 q -57 951 -80 933 q 1 970 -35 970 q 61 940 37 970 q 85 869 85 910 q 63 788 85 828 q -20 701 41 748 l -76 750 q -18 821 -18 796 z "},"̔":{"ha":0,"x_min":-80,"x_max":85,"o":"m 23 821 q 81 750 23 796 l 26 701 q -58 788 -36 748 q -80 869 -80 828 q -56 940 -80 910 q 4 970 -31 970 q 63 951 40 970 q 85 906 85 933 q 76 863 85 878 q 54 842 66 847 q 23 821 23 827 z "},"̕":{"ha":0,"x_min":-80,"x_max":85,"o":"m -18 821 q -39 837 -18 827 q -80 895 -80 857 q -57 951 -80 933 q 1 970 -35 970 q 61 940 37 970 q 85 869 85 910 q 63 788 85 828 q -20 701 41 748 l -76 750 q -18 821 -18 796 z "},"̣":{"ha":0,"x_min":-80,"x_max":80,"o":"m -80 -124 q -57 -66 -80 -90 q 0 -42 -33 -42 q 57 -66 33 -42 q 80 -124 80 -90 q 57 -182 80 -158 q 0 -206 33 -206 q -57 -182 -33 -206 q -80 -124 -80 -158 z "},"̤":{"ha":0,"x_min":-240,"x_max":240,"o":"m 0 -42 m -240 -124 q -217 -66 -240 -90 q -160 -42 -193 -42 q -103 -66 -127 -42 q -80 -124 -80 -90 q -103 -182 -80 -158 q -160 -206 -127 -206 q -217 -182 -193 -206 q -240 -124 -240 -158 m 80 -124 q 103 -66 80 -90 q 160 -42 127 -42 q 217 -66 193 -42 q 240 -124 240 -90 q 217 -182 240 -158 q 160 -206 193 -206 q 103 -182 127 -206 q 80 -124 80 -158 z "},"̥":{"ha":0,"x_min":-122,"x_max":122,"o":"m 0 -100 q -45 -118 -26 -100 q -64 -164 -64 -137 q -45 -209 -64 -191 q 0 -228 -26 -228 q 45 -209 26 -228 q 64 -164 64 -191 q 45 -118 64 -137 q 0 -100 26 -100 m -122 -164 q -86 -78 -122 -114 q 0 -42 -50 -42 q 86 -78 50 -42 q 122 -164 122 -114 q 86 -250 122 -214 q 0 -286 50 -286 q -86 -250 -50 -286 q -122 -164 -122 -214 z "},"̦":{"ha":0,"x_min":-80,"x_max":85,"o":"m -18 -191 q -39 -175 -18 -185 q -80 -117 -80 -155 q -57 -60 -80 -79 q 1 -42 -35 -42 q 61 -72 37 -42 q 85 -143 85 -102 q 63 -224 85 -184 q -20 -311 41 -264 l -76 -262 q -18 -191 -18 -216 z "},"̧":{"ha":0,"x_min":-85,"x_max":85,"o":"m -33 24 l 31 24 q 2 -72 2 -24 q 60 -115 36 -81 q 85 -200 85 -150 q 56 -281 85 -251 q -31 -335 27 -311 l -85 -284 q -20 -247 -43 -267 q 3 -193 3 -227 q -20 -138 3 -159 q -82 -117 -43 -117 q -33 24 -82 -32 z "},"̨":{"ha":0,"x_min":-117,"x_max":70,"o":"m 33 24 q -44 -132 -44 -77 q -26 -183 -44 -168 q 18 -198 -8 -198 q 60 -191 45 -198 l 70 -254 q 18 -264 47 -264 q -81 -226 -45 -264 q -117 -144 -117 -188 q -97 -65 -117 -101 q -31 24 -77 -29 l 33 24 z "},"̩":{"ha":0,"x_min":-37,"x_max":37,"o":"m -37 -286 l -37 -42 l 37 -42 l 37 -286 l -37 -286 z "},"̬":{"ha":0,"x_min":-210,"x_max":210,"o":"m 0 -243 l 159 -74 l 210 -107 l 64 -311 l -64 -311 l -210 -107 l -159 -74 l 0 -243 z "},"̭":{"ha":0,"x_min":-210,"x_max":210,"o":"m 0 -142 l -159 -311 l -210 -277 l -64 -74 l 64 -74 l 210 -277 l 159 -311 l 0 -142 z "},"̱":{"ha":0,"x_min":-213,"x_max":213,"o":"m -213 -74 l 213 -74 l 213 -148 l -213 -148 l -213 -74 z "},"Ḅ":{"ha":757,"x_min":122,"x_max":724,"o":"m 122 0 m 245 849 l 245 539 l 290 539 q 463 582 403 539 q 523 705 523 625 q 425 844 523 805 q 331 861 379 861 q 245 849 283 861 m 599 264 q 286 444 599 444 l 245 444 l 245 95 q 338 83 281 83 q 532 130 466 83 q 599 264 599 177 m 673 117 q 334 -12 575 -12 q 122 9 214 -12 l 122 930 q 355 956 235 956 q 565 897 476 956 q 653 742 653 838 q 606 588 653 646 q 486 510 559 530 q 709 365 665 486 q 724 280 724 327 q 673 117 724 184 m 286 -124 q 310 -66 286 -90 q 366 -42 333 -42 q 423 -66 399 -42 q 446 -124 446 -90 q 423 -182 446 -158 q 366 -206 399 -206 q 310 -182 333 -206 q 286 -124 286 -158 z "},"ḅ":{"ha":718,"x_min":111,"x_max":677,"o":"m 111 0 m 403 562 q 220 439 292 562 l 220 100 q 326 75 260 75 q 554 233 503 75 q 568 337 568 279 q 553 441 568 395 q 462 550 529 521 q 403 562 434 562 m 220 562 q 310 630 264 611 q 410 648 355 648 q 595 574 519 648 q 655 473 633 536 q 677 336 677 410 q 533 43 677 143 q 357 -12 451 -12 q 111 54 219 -12 l 111 1000 l 220 1000 l 220 562 m 296 -124 q 320 -66 296 -90 q 376 -42 343 -42 q 433 -66 410 -42 q 456 -124 456 -90 q 433 -182 456 -158 q 376 -206 410 -206 q 320 -182 343 -206 q 296 -124 296 -158 z "},"Ḍ":{"ha":932,"x_min":122,"x_max":902,"o":"m 122 0 m 747 111 q 372 -12 599 -12 q 122 9 249 -12 l 122 930 q 357 956 265 956 q 791 776 629 956 q 872 639 842 718 q 902 457 902 559 q 860 262 902 355 q 747 111 817 170 m 245 849 l 244 95 q 378 83 307 83 q 648 180 530 83 q 740 301 705 226 q 774 458 774 376 q 591 797 774 680 q 370 861 489 861 q 245 849 298 861 m 340 -124 q 364 -66 340 -90 q 420 -42 387 -42 q 477 -66 454 -42 q 500 -124 500 -90 q 477 -182 500 -158 q 420 -206 454 -206 q 364 -182 387 -206 q 340 -124 340 -158 z "},"ḍ":{"ha":721,"x_min":41,"x_max":610,"o":"m 41 0 m 315 -12 q 173 31 237 -12 q 75 144 109 75 q 41 293 41 214 q 133 550 41 451 q 361 648 225 648 q 498 627 418 648 l 498 1000 l 610 1000 l 610 0 l 498 0 l 498 75 q 315 -12 421 -12 m 498 532 q 387 562 441 562 q 222 490 292 562 q 151 307 151 413 q 201 138 151 201 q 326 75 252 75 q 421 110 376 75 q 498 197 467 144 l 498 532 m 247 -124 q 270 -66 247 -90 q 327 -42 294 -42 q 384 -66 360 -42 q 407 -124 407 -90 q 384 -182 407 -158 q 327 -206 360 -206 q 270 -182 294 -206 q 247 -124 247 -158 z "},"Ḏ":{"ha":932,"x_min":122,"x_max":902,"o":"m 122 0 m 747 111 q 372 -12 599 -12 q 122 9 249 -12 l 122 930 q 357 956 265 956 q 791 776 629 956 q 872 639 842 718 q 902 457 902 559 q 860 262 902 355 q 747 111 817 170 m 245 849 l 244 95 q 378 83 307 83 q 648 180 530 83 q 740 301 705 226 q 774 458 774 376 q 591 797 774 680 q 370 861 489 861 q 245 849 298 861 m 208 -74 l 633 -74 l 633 -148 l 208 -148 l 208 -74 z "},"ḏ":{"ha":721,"x_min":41,"x_max":610,"o":"m 41 0 m 315 -12 q 173 31 237 -12 q 75 144 109 75 q 41 293 41 214 q 133 550 41 451 q 361 648 225 648 q 498 627 418 648 l 498 1000 l 610 1000 l 610 0 l 498 0 l 498 75 q 315 -12 421 -12 m 498 532 q 387 562 441 562 q 222 490 292 562 q 151 307 151 413 q 201 138 151 201 q 326 75 252 75 q 421 110 376 75 q 498 197 467 144 l 498 532 m 114 -74 l 540 -74 l 540 -148 l 114 -148 l 114 -74 z "},"Ḓ":{"ha":932,"x_min":122,"x_max":902,"o":"m 122 0 m 747 111 q 372 -12 599 -12 q 122 9 249 -12 l 122 930 q 357 956 265 956 q 791 776 629 956 q 872 639 842 718 q 902 457 902 559 q 860 262 902 355 q 747 111 817 170 m 245 849 l 244 95 q 378 83 307 83 q 648 180 530 83 q 740 301 705 226 q 774 458 774 376 q 591 797 774 680 q 370 861 489 861 q 245 849 298 861 m 420 -142 l 262 -311 l 211 -277 l 357 -74 l 484 -74 l 630 -277 l 579 -311 l 420 -142 z "},"ḓ":{"ha":721,"x_min":41,"x_max":610,"o":"m 41 0 m 315 -12 q 173 31 237 -12 q 75 144 109 75 q 41 293 41 214 q 133 550 41 451 q 361 648 225 648 q 498 627 418 648 l 498 1000 l 610 1000 l 610 0 l 498 0 l 498 75 q 315 -12 421 -12 m 498 532 q 387 562 441 562 q 222 490 292 562 q 151 307 151 413 q 201 138 151 201 q 326 75 252 75 q 421 110 376 75 q 498 197 467 144 l 498 532 m 327 -142 l 168 -311 l 117 -277 l 263 -74 l 391 -74 l 536 -277 l 486 -311 l 327 -142 z "},"Ḙ":{"ha":730,"x_min":122,"x_max":661,"o":"m 122 0 m 245 437 l 245 95 l 661 95 l 661 0 l 122 0 l 122 943 l 661 943 l 661 849 l 245 849 l 245 532 l 528 532 l 528 437 l 245 437 m 305 -124 q 329 -66 305 -90 q 385 -42 352 -42 q 442 -66 418 -42 q 465 -124 465 -90 q 442 -182 465 -158 q 385 -206 418 -206 q 329 -182 352 -206 q 305 -124 305 -158 z "},"ḙ":{"ha":637,"x_min":41,"x_max":591,"o":"m 41 0 m 339 562 q 198 505 245 562 q 155 393 165 465 l 484 393 q 440 515 478 467 q 339 562 401 562 m 568 37 q 370 -12 495 -12 q 127 78 212 -12 q 41 318 41 168 q 168 601 41 513 q 326 648 239 648 q 529 557 460 648 q 591 353 587 479 l 575 312 l 151 312 q 211 137 152 199 q 368 75 270 75 q 539 115 443 75 l 568 37 m 256 -124 q 279 -66 256 -90 q 336 -42 302 -42 q 392 -66 369 -42 q 416 -124 416 -90 q 392 -182 416 -158 q 336 -206 369 -206 q 279 -182 302 -206 q 256 -124 256 -158 z "},"Ḥ":{"ha":925,"x_min":122,"x_max":803,"o":"m 122 0 m 803 943 l 803 0 l 680 0 l 680 450 l 245 450 l 245 0 l 122 0 l 122 943 l 245 943 l 245 545 l 680 545 l 680 943 l 803 943 m 382 -124 q 406 -66 382 -90 q 463 -42 429 -42 q 519 -66 496 -42 q 543 -124 543 -90 q 519 -182 543 -158 q 463 -206 496 -206 q 406 -182 429 -206 q 382 -124 382 -158 z "},"ḥ":{"ha":760,"x_min":111,"x_max":649,"o":"m 111 0 m 540 344 q 384 562 540 562 q 311 540 344 562 q 231 433 260 507 q 220 392 220 407 l 220 0 l 111 0 l 111 1000 l 220 1000 l 220 519 q 419 648 281 648 q 519 624 475 648 q 589 570 564 599 q 649 382 649 503 l 649 0 l 540 0 l 540 344 m 296 -124 q 320 -66 296 -90 q 376 -42 343 -42 q 433 -66 410 -42 q 456 -124 456 -90 q 433 -182 456 -158 q 376 -206 410 -206 q 320 -182 343 -206 q 296 -124 296 -158 z "},"Ḷ":{"ha":685,"x_min":122,"x_max":661,"o":"m 122 0 m 122 0 l 122 943 l 245 943 l 245 95 l 661 95 l 661 0 l 122 0 m 313 -124 q 337 -66 313 -90 q 393 -42 360 -42 q 450 -66 427 -42 q 473 -124 473 -90 q 450 -182 473 -158 q 393 -206 427 -206 q 337 -182 360 -206 q 313 -124 313 -158 z "},"ḷ":{"ha":402,"x_min":111,"x_max":366,"o":"m 111 0 m 252 -12 q 111 167 111 -12 l 111 1000 l 220 1000 l 220 174 q 241 99 220 121 q 279 76 262 76 q 357 81 297 76 l 366 2 q 252 -12 298 -12 m 153 -124 q 177 -66 153 -90 q 233 -42 200 -42 q 290 -66 267 -42 q 313 -124 313 -90 q 290 -182 313 -158 q 233 -206 267 -206 q 177 -182 200 -206 q 153 -124 153 -158 z "},"Ḽ":{"ha":685,"x_min":122,"x_max":661,"o":"m 122 0 m 122 0 l 122 943 l 245 943 l 245 95 l 661 95 l 661 0 l 122 0 m 393 -142 l 235 -311 l 184 -277 l 330 -74 l 457 -74 l 603 -277 l 552 -311 l 393 -142 z "},"ḽ":{"ha":402,"x_min":24,"x_max":443,"o":"m 24 0 m 252 -12 q 111 167 111 -12 l 111 1000 l 220 1000 l 220 174 q 241 99 220 121 q 279 76 262 76 q 357 81 297 76 l 366 2 q 252 -12 298 -12 m 233 -142 l 75 -311 l 24 -277 l 170 -74 l 297 -74 l 443 -277 l 392 -311 l 233 -142 z "},"Ṅ":{"ha":939,"x_min":122,"x_max":817,"o":"m 122 0 m 817 943 l 817 0 l 694 0 l 245 707 l 245 0 l 122 0 l 122 943 l 245 943 l 694 236 l 694 943 l 817 943 m 389 1195 q 413 1253 389 1229 q 469 1277 436 1277 q 526 1253 503 1277 q 549 1195 549 1229 q 526 1137 549 1161 q 469 1113 503 1113 q 413 1137 436 1113 q 389 1195 389 1161 z "},"ṅ":{"ha":760,"x_min":111,"x_max":649,"o":"m 111 0 m 540 344 q 384 562 540 562 q 311 540 344 562 q 231 433 260 507 q 220 392 220 407 l 220 0 l 111 0 l 111 636 l 220 636 l 220 519 q 419 648 281 648 q 519 624 475 648 q 589 570 564 599 q 649 382 649 503 l 649 0 l 540 0 l 540 344 m 296 888 q 320 946 296 922 q 376 970 343 970 q 433 946 410 970 q 456 888 456 922 q 433 830 456 854 q 376 806 410 806 q 320 830 343 806 q 296 888 296 854 z "},"Ṇ":{"ha":939,"x_min":122,"x_max":817,"o":"m 122 0 m 817 943 l 817 0 l 694 0 l 245 707 l 245 0 l 122 0 l 122 943 l 245 943 l 694 236 l 694 943 l 817 943 m 389 -124 q 413 -66 389 -90 q 469 -42 436 -42 q 526 -66 503 -42 q 549 -124 549 -90 q 526 -182 549 -158 q 469 -206 503 -206 q 413 -182 436 -206 q 389 -124 389 -158 z "},"ṇ":{"ha":760,"x_min":111,"x_max":649,"o":"m 111 0 m 540 344 q 384 562 540 562 q 311 540 344 562 q 231 433 260 507 q 220 392 220 407 l 220 0 l 111 0 l 111 636 l 220 636 l 220 519 q 419 648 281 648 q 519 624 475 648 q 589 570 564 599 q 649 382 649 503 l 649 0 l 540 0 l 540 344 m 296 -124 q 320 -66 296 -90 q 376 -42 343 -42 q 433 -66 410 -42 q 456 -124 456 -90 q 433 -182 456 -158 q 376 -206 410 -206 q 320 -182 343 -206 q 296 -124 296 -158 z "},"Ṋ":{"ha":939,"x_min":122,"x_max":817,"o":"m 122 0 m 817 943 l 817 0 l 694 0 l 245 707 l 245 0 l 122 0 l 122 943 l 245 943 l 694 236 l 694 943 l 817 943 m 469 -142 l 311 -311 l 260 -277 l 406 -74 l 533 -74 l 679 -277 l 628 -311 l 469 -142 z "},"ṋ":{"ha":760,"x_min":111,"x_max":649,"o":"m 111 0 m 540 344 q 384 562 540 562 q 311 540 344 562 q 231 433 260 507 q 220 392 220 407 l 220 0 l 111 0 l 111 636 l 220 636 l 220 519 q 419 648 281 648 q 519 624 475 648 q 589 570 564 599 q 649 382 649 503 l 649 0 l 540 0 l 540 344 m 376 -142 l 218 -311 l 167 -277 l 313 -74 l 440 -74 l 586 -277 l 535 -311 l 376 -142 z "},"Ṕ":{"ha":734,"x_min":122,"x_max":702,"o":"m 122 0 m 122 930 q 341 956 254 956 q 490 940 428 956 q 591 897 552 924 q 655 834 630 871 q 702 675 702 766 q 607 471 702 551 q 360 391 512 391 l 245 391 l 245 0 l 122 0 l 122 930 m 245 849 l 245 486 l 290 486 q 506 530 440 486 q 572 668 572 574 q 517 812 572 762 q 353 861 461 861 q 245 849 294 861 m 535 1308 l 373 1053 l 311 1083 l 408 1308 l 535 1308 z "},"ṕ":{"ha":721,"x_min":111,"x_max":680,"o":"m 111 0 m 223 104 q 334 75 277 75 q 498 147 430 75 q 570 329 570 222 q 520 498 570 435 q 395 561 469 561 q 300 527 345 561 q 223 439 254 492 l 223 104 m 406 648 q 548 605 484 648 q 646 492 612 562 q 680 343 680 422 q 588 86 680 185 q 359 -12 496 -12 q 223 9 302 -12 l 223 -334 l 111 -334 l 111 636 l 223 636 l 223 562 q 406 648 300 648 m 545 1000 l 383 746 l 321 776 l 418 1000 l 545 1000 z "},"Ṣ":{"ha":683,"x_min":65,"x_max":618,"o":"m 65 0 m 106 172 q 141 145 125 158 q 178 121 157 132 q 220 102 198 110 q 326 83 267 83 q 463 131 425 83 q 494 213 494 172 q 486 276 494 253 q 424 351 471 316 q 377 380 404 365 l 266 435 q 171 501 203 469 q 122 560 138 533 q 86 717 86 621 q 156 884 86 813 q 338 956 226 956 q 466 937 409 956 q 555 893 522 919 l 530 800 q 347 862 449 862 q 246 819 282 862 q 210 709 210 777 q 220 654 210 679 q 290 574 237 609 q 349 543 311 559 l 455 488 q 506 457 484 473 q 549 420 528 442 q 618 244 618 352 q 544 62 618 136 q 351 -12 470 -12 q 137 34 221 -12 q 65 77 92 58 l 106 172 m 262 -124 q 285 -66 262 -90 q 342 -42 309 -42 q 398 -66 375 -42 q 422 -124 422 -90 q 398 -182 422 -158 q 342 -206 375 -206 q 285 -182 309 -206 q 262 -124 262 -158 z "},"ṣ":{"ha":530,"x_min":45,"x_max":486,"o":"m 45 0 m 259 75 q 376 176 376 75 q 264 274 376 237 l 198 297 q 93 369 127 322 q 58 478 58 415 q 117 595 58 542 q 269 648 176 648 q 377 632 330 648 q 450 596 425 616 l 412 515 q 352 547 391 532 q 269 562 313 562 q 196 535 224 562 q 168 476 168 509 q 189 422 168 444 q 277 377 211 400 l 343 354 q 451 288 416 329 q 486 169 486 247 q 426 39 486 91 q 263 -12 366 -12 q 158 -1 208 -12 q 45 46 107 10 l 84 130 q 173 87 136 99 q 259 75 210 75 m 191 -124 q 215 -66 191 -90 q 271 -42 238 -42 q 328 -66 304 -42 q 351 -124 351 -90 q 328 -182 351 -158 q 271 -206 304 -206 q 215 -182 238 -206 q 191 -124 191 -158 z "},"Ṭ":{"ha":802,"x_min":39,"x_max":764,"o":"m 39 0 m 39 943 l 764 943 l 764 849 l 463 849 l 463 0 l 340 0 l 340 849 l 39 849 l 39 943 m 321 -124 q 344 -66 321 -90 q 401 -42 368 -42 q 457 -66 434 -42 q 481 -124 481 -90 q 457 -182 481 -158 q 401 -206 434 -206 q 344 -182 368 -206 q 321 -124 321 -158 z "},"ṭ":{"ha":454,"x_min":5,"x_max":425,"o":"m 5 0 m 279 -12 q 118 167 118 -12 l 118 549 l 5 549 l 5 636 l 118 636 l 118 765 l 227 806 l 227 636 l 382 636 l 382 549 l 227 549 l 227 174 q 254 99 227 121 q 313 76 280 76 q 411 87 376 76 l 425 10 q 279 -12 362 -12 m 172 -124 q 196 -66 172 -90 q 252 -42 219 -42 q 309 -66 286 -42 q 332 -124 332 -90 q 309 -182 332 -158 q 252 -206 286 -206 q 196 -182 219 -206 q 172 -124 172 -158 z "},"Ṯ":{"ha":802,"x_min":39,"x_max":764,"o":"m 39 0 m 39 943 l 764 943 l 764 849 l 463 849 l 463 0 l 340 0 l 340 849 l 39 849 l 39 943 m 188 -74 l 614 -74 l 614 -148 l 188 -148 l 188 -74 z "},"ṯ":{"ha":454,"x_min":5,"x_max":465,"o":"m 5 0 m 279 -12 q 118 167 118 -12 l 118 549 l 5 549 l 5 636 l 118 636 l 118 765 l 227 806 l 227 636 l 382 636 l 382 549 l 227 549 l 227 174 q 254 99 227 121 q 313 76 280 76 q 411 87 376 76 l 425 10 q 279 -12 362 -12 m 39 -74 l 465 -74 l 465 -148 l 39 -148 l 39 -74 z "},"Ṱ":{"ha":802,"x_min":39,"x_max":764,"o":"m 39 0 m 39 943 l 764 943 l 764 849 l 463 849 l 463 0 l 340 0 l 340 849 l 39 849 l 39 943 m 401 -142 l 242 -311 l 191 -277 l 337 -74 l 465 -74 l 610 -277 l 559 -311 l 401 -142 z "},"ṱ":{"ha":454,"x_min":5,"x_max":462,"o":"m 5 0 m 279 -12 q 118 167 118 -12 l 118 549 l 5 549 l 5 636 l 118 636 l 118 765 l 227 806 l 227 636 l 382 636 l 382 549 l 227 549 l 227 174 q 254 99 227 121 q 313 76 280 76 q 411 87 376 76 l 425 10 q 279 -12 362 -12 m 252 -142 l 94 -311 l 43 -277 l 189 -74 l 316 -74 l 462 -277 l 411 -311 l 252 -142 z "},"Ṷ":{"ha":888,"x_min":122,"x_max":766,"o":"m 122 0 m 462 -12 q 122 297 122 -12 l 122 943 l 245 943 l 245 330 q 303 143 245 203 q 457 83 361 83 q 650 348 650 83 l 650 943 l 766 943 l 766 318 q 686 78 766 168 q 462 -12 606 -12 m 444 -142 l 286 -311 l 235 -277 l 380 -74 l 508 -74 l 654 -277 l 603 -311 l 444 -142 z "},"ṷ":{"ha":760,"x_min":111,"x_max":649,"o":"m 111 0 m 540 117 q 341 -12 479 -12 q 241 13 286 -12 q 171 66 197 37 q 129 143 146 94 q 111 254 111 192 l 111 636 l 220 636 l 220 292 q 376 75 220 75 q 450 96 416 75 q 530 203 500 129 q 540 244 540 229 l 540 636 l 649 636 l 649 0 l 540 0 l 540 117 m 376 -142 l 218 -311 l 167 -277 l 313 -74 l 440 -74 l 586 -277 l 535 -311 l 376 -142 z "},"Ẅ":{"ha":1375,"x_min":45,"x_max":1329,"o":"m 45 0 m 1215 943 l 1329 943 l 1017 0 l 915 0 l 687 688 l 459 0 l 357 0 l 45 943 l 166 943 l 412 168 l 658 943 l 724 943 l 969 168 l 1215 943 m 447 1113 m 447 1195 q 470 1253 447 1229 q 527 1277 494 1277 q 584 1253 560 1277 q 607 1195 607 1229 q 584 1137 607 1161 q 527 1113 560 1113 q 470 1137 494 1113 q 447 1195 447 1161 m 767 1195 q 790 1253 767 1229 q 847 1277 814 1277 q 904 1253 880 1277 q 927 1195 927 1229 q 904 1137 927 1161 q 847 1113 880 1113 q 790 1137 814 1113 q 767 1195 767 1161 z "},"ẅ":{"ha":1025,"x_min":14,"x_max":1011,"o":"m 14 0 m 901 636 l 1011 636 l 762 0 l 692 0 l 513 455 l 335 0 l 264 0 l 14 636 l 132 636 l 303 180 l 474 636 l 559 636 l 730 180 l 901 636 m 273 806 m 273 888 q 296 946 273 922 q 353 970 319 970 q 409 946 386 970 q 433 888 433 922 q 409 830 433 854 q 353 806 386 806 q 296 830 319 806 q 273 888 273 854 m 593 888 q 616 946 593 922 q 673 970 640 970 q 729 946 706 970 q 753 888 753 922 q 729 830 753 854 q 673 806 706 806 q 616 830 640 806 q 593 888 593 854 z "},"Ẓ":{"ha":854,"x_min":34,"x_max":757,"o":"m 34 0 m 59 943 l 757 943 l 217 94 l 757 94 l 757 -1 l 34 0 l 574 849 l 59 849 l 59 943 m 328 -124 q 351 -66 328 -90 q 408 -42 374 -42 q 464 -66 441 -42 q 488 -124 488 -90 q 464 -182 488 -158 q 408 -206 441 -206 q 351 -182 374 -206 q 328 -124 328 -158 z "},"ẓ":{"ha":659,"x_min":45,"x_max":614,"o":"m 45 0 m 75 636 l 603 636 l 231 87 l 614 87 l 614 0 l 45 0 l 418 549 l 75 549 l 75 636 m 264 -124 q 288 -66 264 -90 q 345 -42 311 -42 q 401 -66 378 -42 q 425 -124 425 -90 q 401 -182 425 -158 q 345 -206 378 -206 q 288 -182 311 -206 q 264 -124 264 -158 z "},"Ạ":{"ha":901,"x_min":45,"x_max":855,"o":"m 45 0 m 633 274 l 261 274 l 159 0 l 45 0 l 399 943 l 501 943 l 855 0 l 734 0 l 633 274 m 597 369 l 447 776 l 296 369 l 597 369 m 370 -124 q 394 -66 370 -90 q 450 -42 417 -42 q 507 -66 484 -42 q 530 -124 530 -90 q 507 -182 530 -158 q 450 -206 484 -206 q 394 -182 417 -206 q 370 -124 370 -158 z "},"ạ":{"ha":606,"x_min":52,"x_max":533,"o":"m 52 0 m 410 286 q 161 162 161 286 q 181 100 161 129 q 229 72 202 72 l 255 72 q 414 229 404 72 l 414 286 l 410 286 m 98 606 q 298 648 220 648 q 435 610 376 648 q 513 495 493 571 q 524 321 524 452 l 524 109 q 533 0 524 49 l 423 0 q 414 63 414 28 l 414 68 q 377 33 397 47 q 241 -14 313 -14 q 75 72 121 -14 q 52 159 52 115 q 191 331 52 278 q 402 363 274 363 l 414 363 l 414 431 q 386 533 414 506 q 275 564 353 564 q 104 521 198 564 l 98 606 m 218 -124 q 241 -66 218 -90 q 298 -42 264 -42 q 354 -66 331 -42 q 378 -124 378 -90 q 354 -182 378 -158 q 298 -206 331 -206 q 241 -182 264 -206 q 218 -124 218 -158 z "},"Ẹ":{"ha":730,"x_min":122,"x_max":661,"o":"m 122 0 m 245 437 l 245 95 l 661 95 l 661 0 l 122 0 l 122 943 l 661 943 l 661 849 l 245 849 l 245 532 l 528 532 l 528 437 l 245 437 m 305 -124 q 329 -66 305 -90 q 385 -42 352 -42 q 442 -66 418 -42 q 465 -124 465 -90 q 442 -182 465 -158 q 385 -206 418 -206 q 329 -182 352 -206 q 305 -124 305 -158 z "},"ẹ":{"ha":637,"x_min":41,"x_max":591,"o":"m 41 0 m 339 562 q 198 505 245 562 q 155 393 165 465 l 484 393 q 440 515 478 467 q 339 562 401 562 m 568 37 q 370 -12 495 -12 q 127 78 212 -12 q 41 318 41 168 q 168 601 41 513 q 326 648 239 648 q 529 557 460 648 q 591 353 587 479 l 575 312 l 151 312 q 211 137 152 199 q 368 75 270 75 q 539 115 443 75 l 568 37 m 256 -124 q 279 -66 256 -90 q 336 -42 302 -42 q 392 -66 369 -42 q 416 -124 416 -90 q 392 -182 416 -158 q 336 -206 369 -206 q 279 -182 302 -206 q 256 -124 256 -158 z "},"Ẽ":{"ha":730,"x_min":122,"x_max":661,"o":"m 122 0 m 245 437 l 245 95 l 661 95 l 661 0 l 122 0 l 122 943 l 661 943 l 661 849 l 245 849 l 245 532 l 528 532 l 528 437 l 245 437 m 201 1058 l 153 1099 q 271 1215 201 1193 q 310 1220 288 1220 q 384 1190 332 1220 q 458 1160 435 1160 q 509 1177 481 1160 q 555 1227 536 1193 l 603 1186 q 486 1069 555 1093 q 446 1064 468 1064 q 373 1095 424 1064 q 299 1125 321 1125 q 248 1108 276 1125 q 201 1058 220 1092 z "},"ẽ":{"ha":637,"x_min":41,"x_max":591,"o":"m 41 0 m 339 562 q 198 505 245 562 q 155 393 165 465 l 484 393 q 440 515 478 467 q 339 562 401 562 m 568 37 q 370 -12 495 -12 q 127 78 212 -12 q 41 318 41 168 q 168 601 41 513 q 326 648 239 648 q 529 557 460 648 q 591 353 587 479 l 575 312 l 151 312 q 211 137 152 199 q 368 75 270 75 q 539 115 443 75 l 568 37 m 151 751 l 104 791 q 222 907 152 886 q 261 913 239 913 q 334 883 283 913 q 408 853 385 853 q 459 869 431 853 q 506 920 487 886 l 553 879 q 436 762 506 786 q 396 757 418 757 q 323 787 374 757 q 249 818 272 818 q 198 801 227 818 q 151 751 170 785 z "},"Ị":{"ha":367,"x_min":103,"x_max":263,"o":"m 103 0 m 245 943 l 245 0 l 122 0 l 122 943 l 245 943 m 103 -124 q 126 -66 103 -90 q 183 -42 150 -42 q 240 -66 216 -42 q 263 -124 263 -90 q 240 -182 263 -158 q 183 -206 216 -206 q 126 -182 150 -206 q 103 -124 103 -158 z "},"ị":{"ha":371,"x_min":38,"x_max":285,"o":"m 38 0 m 38 -3 m 260 633 l 260 -3 l 151 -3 l 151 547 l 38 547 l 38 633 l 260 633 m 125 885 q 148 943 125 919 q 205 967 172 967 q 261 943 238 967 q 285 885 285 919 q 261 827 285 851 q 205 803 238 803 q 148 827 172 803 q 125 885 125 851 m 125 -127 q 148 -69 125 -93 q 205 -45 172 -45 q 261 -69 238 -45 q 285 -127 285 -93 q 261 -185 285 -161 q 205 -209 238 -209 q 148 -185 172 -209 q 125 -127 125 -161 z "},"Ọ":{"ha":979,"x_min":31,"x_max":949,"o":"m 31 0 m 150 819 q 295 919 207 883 q 481 956 383 956 q 875 759 749 956 q 949 477 949 640 q 872 191 949 312 q 652 14 791 61 q 480 -12 578 -12 q 292 25 381 -12 q 146 129 203 63 q 31 477 31 265 q 150 819 31 686 m 673 809 q 493 862 597 862 q 312 811 389 862 q 161 477 161 710 q 311 136 161 240 q 478 83 387 83 q 736 201 647 83 q 821 477 821 315 q 673 809 821 705 m 413 -124 q 436 -66 413 -90 q 493 -42 460 -42 q 550 -66 526 -42 q 573 -124 573 -90 q 550 -182 573 -158 q 493 -206 526 -206 q 436 -182 460 -206 q 413 -124 413 -158 z "},"ọ":{"ha":686,"x_min":41,"x_max":645,"o":"m 41 0 m 151 318 q 167 203 151 252 q 212 127 184 154 q 273 88 240 100 q 343 75 306 75 q 474 127 419 75 q 534 318 534 185 q 474 509 534 450 q 343 561 418 561 q 212 509 267 561 q 151 318 151 450 m 41 318 q 174 604 41 524 q 343 648 247 648 q 513 604 439 648 q 582 543 553 580 q 645 318 645 460 q 513 33 645 112 q 343 -12 440 -12 q 174 33 245 -12 q 104 94 134 56 q 41 318 41 174 m 263 -124 q 287 -66 263 -90 q 343 -42 310 -42 q 400 -66 376 -42 q 423 -124 423 -90 q 400 -182 423 -158 q 343 -206 376 -206 q 287 -182 310 -206 q 263 -124 263 -158 z "},"Ụ":{"ha":888,"x_min":122,"x_max":766,"o":"m 122 0 m 462 -12 q 122 297 122 -12 l 122 943 l 245 943 l 245 330 q 303 143 245 203 q 457 83 361 83 q 650 348 650 83 l 650 943 l 766 943 l 766 318 q 686 78 766 168 q 462 -12 606 -12 m 364 -124 q 388 -66 364 -90 q 444 -42 411 -42 q 501 -66 477 -42 q 524 -124 524 -90 q 501 -182 524 -158 q 444 -206 477 -206 q 388 -182 411 -206 q 364 -124 364 -158 z "},"ụ":{"ha":760,"x_min":111,"x_max":649,"o":"m 111 0 m 540 117 q 341 -12 479 -12 q 241 13 286 -12 q 171 66 197 37 q 129 143 146 94 q 111 254 111 192 l 111 636 l 220 636 l 220 292 q 376 75 220 75 q 450 96 416 75 q 530 203 500 129 q 540 244 540 229 l 540 636 l 649 636 l 649 0 l 540 0 l 540 117 m 296 -124 q 320 -66 296 -90 q 376 -42 343 -42 q 433 -66 410 -42 q 456 -124 456 -90 q 433 -182 456 -158 q 376 -206 410 -206 q 320 -182 343 -206 q 296 -124 296 -158 z "},"Ỹ":{"ha":842,"x_min":40,"x_max":802,"o":"m 40 0 m 688 943 l 802 943 l 482 419 l 482 0 l 359 0 l 359 420 l 40 943 l 161 943 l 425 511 l 688 943 m 236 1058 l 189 1099 q 307 1215 237 1193 q 346 1220 323 1220 q 419 1190 368 1220 q 493 1160 470 1160 q 544 1177 516 1160 q 591 1227 572 1193 l 638 1186 q 521 1069 591 1093 q 481 1064 503 1064 q 408 1095 459 1064 q 334 1125 357 1125 q 283 1108 311 1125 q 236 1058 255 1092 z "},"ỹ":{"ha":696,"x_min":-1,"x_max":682,"o":"m 0 0 m 39 -218 q 99 -249 75 -249 q 172 -212 140 -249 q 262 -60 214 -164 q 294 7 275 -33 l 16 636 l 134 636 l 353 140 l 572 636 l 682 636 l 401 12 q 206 -308 288 -250 q 106 -336 165 -336 q -1 -285 47 -336 l 39 -218 m 165 751 l 117 791 q 235 907 165 886 q 274 913 252 913 q 348 883 296 913 q 422 853 399 853 q 473 869 445 853 q 519 920 500 886 l 567 879 q 450 762 519 786 q 410 757 432 757 q 337 787 388 757 q 263 818 286 818 q 212 801 240 818 q 165 751 184 785 z "},"‐":{"ha":404,"x_min":41,"x_max":362,"o":"m 362 304 l 41 304 l 41 378 l 362 378 l 362 304 z "},"‑":{"ha":404,"x_min":41,"x_max":362,"o":"m 41 304 m 362 304 l 41 304 l 41 378 l 362 378 l 362 304 z "},"–":{"ha":519,"x_min":41,"x_max":468,"o":"m 41 304 m 468 304 l 41 304 l 41 378 l 468 378 l 468 304 z "},"—":{"ha":1055,"x_min":46,"x_max":1009,"o":"m 1009 304 l 46 304 l 46 378 l 1009 378 l 1009 304 z "},"‘":{"ha":305,"x_min":51,"x_max":238,"o":"m 150 774 q 183 746 150 762 q 206 724 195 741 q 216 680 216 707 q 195 628 216 652 q 141 604 174 604 q 90 616 109 604 q 64 647 71 628 q 51 721 51 680 q 182 956 51 829 l 238 907 q 150 774 150 823 z "},"’":{"ha":305,"x_min":51,"x_max":238,"o":"m 139 785 q 106 814 139 798 q 83 836 94 819 q 73 880 73 853 q 94 931 73 907 q 148 956 115 956 q 199 944 180 956 q 225 913 218 932 q 238 839 238 880 q 106 604 238 731 l 51 653 q 139 785 139 737 z "},"‚":{"ha":305,"x_min":51,"x_max":238,"o":"m 51 0 m 139 -3 q 106 26 139 9 q 83 48 94 31 q 73 92 73 65 q 94 143 73 119 q 148 168 115 168 q 199 156 180 168 q 225 125 218 144 q 238 51 238 92 q 106 -184 238 -57 l 51 -135 q 139 -3 139 -51 z "},"‛":{"ha":305,"x_min":51,"x_max":238,"o":"m 150 785 q 238 653 150 737 l 182 604 q 77 739 104 680 q 51 850 51 798 q 136 956 51 956 q 195 931 174 956 q 216 880 216 907 q 206 836 216 853 q 183 814 195 819 q 150 785 150 798 z "},"“":{"ha":557,"x_min":51,"x_max":492,"o":"m 51 604 m 150 774 q 183 746 150 762 q 206 724 195 741 q 216 680 216 707 q 195 628 216 652 q 141 604 174 604 q 90 616 109 604 q 64 647 71 628 q 51 721 51 680 q 182 956 51 829 l 238 907 q 150 774 150 823 m 404 774 q 437 746 404 762 q 460 724 450 741 q 471 680 471 707 q 449 628 471 652 q 395 604 428 604 q 344 616 363 604 q 318 647 326 628 q 305 721 305 680 q 437 956 305 829 l 492 907 q 404 774 404 823 z "},"”":{"ha":557,"x_min":51,"x_max":492,"o":"m 51 604 m 139 785 q 106 814 139 798 q 83 836 94 819 q 73 880 73 853 q 94 931 73 907 q 148 956 115 956 q 199 944 180 956 q 225 913 218 932 q 238 839 238 880 q 106 604 238 731 l 51 653 q 139 785 139 737 m 393 785 q 360 814 393 798 q 337 836 348 819 q 327 880 327 853 q 348 931 327 907 q 402 956 370 956 q 453 944 435 956 q 479 913 472 932 q 492 839 492 880 q 361 604 492 731 l 305 653 q 393 785 393 737 z "},"„":{"ha":557,"x_min":51,"x_max":492,"o":"m 51 0 m 393 -3 q 360 26 393 9 q 337 48 348 31 q 327 92 327 65 q 348 143 327 119 q 402 168 370 168 q 453 156 435 168 q 479 125 472 144 q 492 51 492 92 q 361 -184 492 -57 l 305 -135 q 393 -3 393 -51 m 139 -3 q 106 26 139 9 q 83 48 94 31 q 73 92 73 65 q 94 143 73 119 q 148 168 115 168 q 199 156 180 168 q 225 125 218 144 q 238 51 238 92 q 106 -184 238 -57 l 51 -135 q 139 -3 139 -51 z "},"‟":{"ha":557,"x_min":51,"x_max":492,"o":"m 51 604 m 150 785 q 238 653 150 737 l 182 604 q 77 739 104 680 q 51 850 51 798 q 136 956 51 956 q 195 931 174 956 q 216 880 216 907 q 206 836 216 853 q 183 814 195 819 q 150 785 150 798 m 404 785 q 492 653 404 737 l 437 604 q 332 739 358 680 q 305 850 305 798 q 391 956 305 956 q 449 931 428 956 q 471 880 471 907 q 460 836 471 853 q 437 814 450 819 q 404 785 404 798 z "},"•":{"ha":316,"x_min":43,"x_max":273,"o":"m 43 342 q 77 425 43 391 q 158 460 111 460 q 239 425 205 460 q 273 342 273 391 q 239 258 273 293 q 158 224 205 224 q 77 258 111 224 q 43 342 43 293 z "},"‹":{"ha":388,"x_min":12,"x_max":317,"o":"m 127 356 l 317 182 l 294 114 l 12 356 l 294 598 l 317 530 l 127 356 z "},"›":{"ha":388,"x_min":71,"x_max":376,"o":"m 261 356 l 71 530 l 94 598 l 376 356 l 94 114 l 71 182 l 261 356 z "},"₦":{"ha":885,"x_min":36,"x_max":849,"o":"m 640 237 l 640 323 l 587 323 l 640 237 m 245 879 l 453 541 l 640 541 l 640 879 l 763 879 l 763 541 l 849 541 l 849 467 l 763 467 l 763 397 l 849 397 l 849 323 l 763 323 l 763 0 l 640 0 l 441 323 l 245 323 l 245 0 l 122 0 l 122 323 l 36 323 l 36 397 l 122 397 l 122 467 l 36 467 l 36 541 l 122 541 l 122 879 l 245 879 m 245 641 l 245 541 l 307 541 l 245 641 m 245 467 l 245 397 l 395 397 l 352 467 l 245 467 m 640 467 l 498 467 l 542 397 l 640 397 l 640 467 z "},"€":{"ha":948,"x_min":41,"x_max":899,"o":"m 899 78 q 580 -12 779 -12 q 320 69 431 -12 q 172 323 203 155 l 41 323 l 41 397 l 164 397 q 163 434 163 416 q 163 467 163 452 l 77 467 l 77 541 l 173 541 q 254 722 194 644 q 402 843 313 800 q 595 885 490 885 q 865 818 768 885 q 899 793 879 808 l 840 722 q 621 798 753 798 q 400 729 488 798 q 283 541 312 661 l 680 541 l 680 467 l 273 467 q 272 434 272 452 q 273 397 272 416 l 643 397 l 643 323 l 283 323 q 473 94 320 144 q 599 75 529 75 q 846 147 723 75 l 899 78 z "},"₵":{"ha":777,"x_min":52,"x_max":720,"o":"m 444 798 q 606 772 534 798 q 720 715 677 747 l 666 641 q 586 684 648 659 q 460 710 524 710 q 429 709 444 710 l 429 76 q 448 75 438 75 q 672 140 559 75 l 720 70 q 430 -12 612 -12 l 429 -12 l 429 -122 l 349 -122 l 349 -5 q 132 127 213 21 q 52 386 52 234 q 135 646 52 537 q 349 787 218 755 l 349 907 l 429 907 l 429 798 l 444 798 m 349 90 l 349 690 q 212 580 264 658 q 161 391 161 502 q 209 199 161 281 q 349 90 258 118 z "},"Ɑ":{"ha":895,"x_min":31,"x_max":772,"o":"m 650 820 q 510 861 593 861 q 372 840 427 861 q 279 781 317 819 q 213 692 240 743 q 161 451 161 589 q 264 133 161 224 q 399 83 319 83 q 650 279 547 83 l 650 820 m 650 115 q 396 -12 536 -12 q 275 4 325 -12 q 179 58 224 21 q 102 148 134 94 q 31 458 31 266 q 56 635 31 553 q 123 774 81 717 q 220 873 165 832 q 451 956 327 956 q 772 858 631 956 l 772 0 l 650 0 l 650 115 z "}}}
